<?xml version="1.0" encoding="UTF-8" standalone="no"?>
<svg
   xmlns:dc="http://purl.org/dc/elements/1.1/"
   xmlns:cc="http://creativecommons.org/ns#"
   xmlns:rdf="http://www.w3.org/1999/02/22-rdf-syntax-ns#"
   xmlns:svg="http://www.w3.org/2000/svg"
   xmlns="http://www.w3.org/2000/svg"
   xmlns:sodipodi="http://sodipodi.sourceforge.net/DTD/sodipodi-0.dtd"
   xmlns:inkscape="http://www.inkscape.org/namespaces/inkscape"
   version="1.0"
   width="325.78931"
   height="376.18909"
   viewBox="0 0 3257.8931 3761.8909"
   preserveAspectRatio="xMidYMid meet"
   id="svg29"
   sodipodi:docname="Psicostat_hexagon.svg"
   inkscape:version="0.92.4 (5da689c313, 2019-01-14)"
   inkscape:label="Layer">
  <metadata
     id="metadata35">
    <rdf:RDF>
      <cc:Work
         rdf:about="">
        <dc:format>image/svg+xml</dc:format>
        <dc:type
           rdf:resource="http://purl.org/dc/dcmitype/StillImage" />
      </cc:Work>
    </rdf:RDF>
  </metadata>
  <defs
     id="defs33">
    <inkscape:path-effect
       only_selected="false"
       apply_with_weight="true"
       apply_no_weight="true"
       helper_size="0"
       steps="2"
       weight="33.333333"
       is_visible="true"
       id="path-effect980-6-2"
       effect="bspline" />
    <inkscape:path-effect
       only_selected="false"
       apply_with_weight="true"
       apply_no_weight="true"
       helper_size="0"
       steps="2"
       weight="33.333333"
       is_visible="true"
       id="path-effect984-7-1"
       effect="bspline" />
    <inkscape:path-effect
       only_selected="false"
       apply_with_weight="true"
       apply_no_weight="true"
       helper_size="0"
       steps="2"
       weight="33.333333"
       is_visible="true"
       id="path-effect984-0-8-0"
       effect="bspline" />
    <inkscape:path-effect
       only_selected="false"
       apply_with_weight="true"
       apply_no_weight="true"
       helper_size="0"
       steps="2"
       weight="33.333333"
       is_visible="true"
       id="path-effect980-3-1-0"
       effect="bspline" />
    <inkscape:path-effect
       only_selected="false"
       apply_with_weight="true"
       apply_no_weight="true"
       helper_size="0"
       steps="2"
       weight="33.333333"
       is_visible="true"
       id="path-effect1024-7-2"
       effect="bspline" />
    <inkscape:path-effect
       only_selected="false"
       apply_with_weight="true"
       apply_no_weight="true"
       helper_size="0"
       steps="2"
       weight="33.333333"
       is_visible="true"
       id="path-effect1024-8-4-2"
       effect="bspline" />
  </defs>
  <sodipodi:namedview
     pagecolor="#ffffff"
     bordercolor="#666666"
     borderopacity="1"
     objecttolerance="10"
     gridtolerance="10"
     guidetolerance="10"
     inkscape:pageopacity="0"
     inkscape:pageshadow="2"
     inkscape:window-width="1920"
     inkscape:window-height="1027"
     id="namedview31"
     showgrid="false"
     inkscape:zoom="0.82460802"
     inkscape:cx="319.21334"
     inkscape:cy="147.42967"
     inkscape:window-x="-8"
     inkscape:window-y="-8"
     inkscape:window-maximized="1"
     inkscape:current-layer="layer4" />
  <g
     inkscape:groupmode="layer"
     id="layer1"
     inkscape:label="White Background"
     transform="translate(1330.0506,1945.5626)" />
  <g
     inkscape:groupmode="layer"
     id="layer2"
     inkscape:label="Red Background"
     transform="translate(1330.0506,1945.5626)">
    <g
       id="g1078-4-2"
       transform="matrix(33.572758,0,0,33.572758,-572.84296,-3398.5847)"
       style="opacity:0.2;fill:none;fill-opacity:0.16017318;stroke:#c81f1f;stroke-opacity:1" />
    <g
       style="visibility:visible;fill-rule:evenodd"
       visibility="visible"
       id="Default"
       transform="matrix(0.88960133,0,0,0.88960133,-4135.2013,-329.09609)">
      <desc
         id="desc903">Master slide</desc>
    </g>
  </g>
  <g
     inkscape:groupmode="layer"
     id="layer4"
     inkscape:label="White Logo"
     transform="translate(1330.0506,1945.5626)">
    <path
       sodipodi:type="star"
       style="fill:#ffffff;fill-opacity:1;stroke:#000000;stroke-width:5;stroke-miterlimit:4;stroke-dasharray:none;stroke-opacity:1"
       id="path830-5"
       sodipodi:sides="6"
       sodipodi:cx="298.89597"
       sodipodi:cy="-64.617165"
       sodipodi:r1="1878.0587"
       sodipodi:r2="1626.4464"
       sodipodi:arg1="1.5707963"
       sodipodi:arg2="2.0943951"
       inkscape:flatsided="true"
       inkscape:rounded="0"
       inkscape:randomized="0"
       d="m 298.89602,1813.4416 -1626.44662,-939.02936 0,-1878.05874 1626.44652,-939.0294 1626.44658,939.0293 0,1878.05875 z"
       inkscape:transform-center-x="1.2305691e-06"
       inkscape:transform-center-y="9.9083514e-06" />
    <path
       sodipodi:type="star"
       style="fill:#c81f1f;fill-opacity:1;stroke:none;stroke-width:10.40498066;stroke-opacity:1"
       id="path830-3-2"
       sodipodi:sides="6"
       sodipodi:cx="298.89597"
       sodipodi:cy="-64.617165"
       sodipodi:r1="1842.6305"
       sodipodi:r2="1595.7646"
       sodipodi:arg1="1.5707963"
       sodipodi:arg2="2.0943951"
       inkscape:flatsided="true"
       inkscape:rounded="0"
       inkscape:randomized="0"
       d="m 298.89601,1778.0133 -1595.76481,-921.31518 -10e-5,-1842.63049 1595.76482,-921.31533 1595.76488,921.31525 0,1842.63049 z"
       inkscape:transform-center-x="-9.7281251e-05"
       inkscape:transform-center-y="0.00010868039" />
    <path
       sodipodi:type="star"
       style="fill:#ffffff;fill-opacity:1;stroke:none;stroke-width:9.69768047;stroke-opacity:1"
       id="path830-3"
       sodipodi:sides="6"
       sodipodi:cx="298.89597"
       sodipodi:cy="-64.617165"
       sodipodi:r1="1717.3738"
       sodipodi:r2="1487.2893"
       sodipodi:arg1="1.5707963"
       sodipodi:arg2="2.0943951"
       inkscape:flatsided="true"
       inkscape:rounded="0"
       inkscape:randomized="0"
       d="m 298.89601,1652.7566 -1487.28931,-858.68684 -10e-5,-1717.37377 1487.28932,-858.68689 1487.28938,858.68681 0,1717.37378 z"
       inkscape:transform-center-x="-7.1981087e-06"
       inkscape:transform-center-y="0.00011094779" />
  </g>
  <g
     inkscape:groupmode="layer"
     id="layer3"
     inkscape:label="Sigma/Psi"
     transform="translate(1330.0506,1945.5626)">
    <g
       transform="matrix(1.0100837,0,0,0.96066381,-212.69944,-1298.0698)"
       style="visibility:visible;fill:#f2b1b1;fill-opacity:1;fill-rule:evenodd"
       visibility="visible"
       id="page1">
      <desc
         id="desc906">Slide</desc>
      <g
         id="g918"
         style="fill:#f2b1b1;fill-opacity:1">
        <desc
           id="desc908">Drawing</desc>
        <g
           id="g916"
           style="fill:#f2b1b1;fill-opacity:1">
          <g
             style="fill:#f2b1b1;fill-opacity:1;stroke:none"
             id="g912">
            <path
               inkscape:connector-curvature="0"
               d="m 1266,1543 31,-10 29,-13 14,-7 13,-8 12,-9 12,-8 11,-10 11,-10 10,-10 10,-11 9,-12 8,-12 8,-13 7,-13 14,-30 12,-37 13,-43 11,-49 21,-118 17,-143 25,-214 11,-75 6,-29 5,-24 6,-21 6,-20 8,-19 10,-18 11,-17 11,-16 14,-14 14,-14 16,-12 16,-10 18,-9 20,-8 20,-6 22,-4 22,-2 24,-1 h 14 l 15,1 15,2 16,2 32,5 33,8 v 46 l -7,-1 h -6 -11 -6 l -7,1 -6,1 -6,2 -6,2 -6,3 -6,3 -5,4 -6,4 -5,5 -5,5 -5,5 -10,13 -10,15 -4,9 -5,10 -9,25 -8,31 -8,37 -16,91 -14,115 -13,105 -14,89 -14,73 -8,30 -7,26 -8,24 -10,24 -11,24 -12,23 -13,24 -15,23 -15,23 -17,23 -17,23 -18,21 -19,19 -19,18 -19,17 -20,15 -20,14 -20,12 -21,11 -22,11 -23,10 -25,9 -25,8 -26,8 -55,13 v 510 h -133 v -510 l -57,-14 -27,-8 -26,-9 -25,-10 -25,-10 -23,-12 -22,-12 -21,-13 -20,-14 -20,-16 -19,-17 -18,-18 -18,-20 -17,-21 -16,-22 -16,-23 -14,-23 -14,-23 -12,-23 -12,-24 -10,-23 -10,-23 -8,-24 -8,-26 -7,-31 -15,-75 -14,-93 -14,-112 -13,-108 -15,-85 -8,-35 -9,-30 -8,-24 -5,-9 -4,-9 -10,-14 -10,-13 -5,-6 -5,-5 -5,-4 -6,-4 -5,-4 -6,-3 -6,-3 -5,-2 -6,-2 -6,-1 -7,-1 h -6 -12 -6 l -7,1 v -46 l 33,-8 32,-5 16,-2 15,-2 15,-1 h 14 l 23,1 23,2 21,4 21,6 19,8 18,9 16,10 16,12 14,14 14,14 12,16 10,17 10,18 8,19 8,20 6,21 6,24 5,27 11,69 10,86 10,103 18,166 11,70 12,62 12,54 13,45 15,38 7,15 8,14 17,24 18,22 20,20 22,18 23,16 25,14 27,11 29,10 V 444 h 133 z"
               id="path910"
               style="fill:#f2b1b1;fill-opacity:1" />
          </g>
          <g
             id="g914"
             style="fill:#f2b1b1;fill-opacity:1" />
        </g>
      </g>
      <g
         id="g926"
         style="fill:#f2b1b1;fill-opacity:1">
        <desc
           id="desc920">Drawing</desc>
        <g
           id="g924"
           style="fill:#f2b1b1;fill-opacity:1">
          <g
             id="g922"
             style="fill:#f2b1b1;fill-opacity:1" />
        </g>
      </g>
      <g
         id="g938"
         style="fill:#f2b1b1;fill-opacity:1">
        <desc
           id="desc928">Drawing</desc>
        <g
           id="g936"
           style="fill:#f2b1b1;fill-opacity:1">
          <g
             id="g934"
             style="fill:#f2b1b1;fill-opacity:1">
            <g
               style="font-weight:400;font-size:635px;font-family:Arial;fill:#f2b1b1;fill-opacity:1"
               id="g932">
              <g
                 style="fill:#f2b1b1;fill-opacity:1;stroke:none"
                 id="g930" />
            </g>
          </g>
        </g>
      </g>
    </g>
    <path
       inkscape:connector-curvature="0"
       d="m -1071.1852,-872.11263 1.3665,50.50799 633.07806,772.281113 -640.10016,745.268057 -1.8487,46.93378 1241.21557,-6.29486 c 12.12188,-150.32257 45.4219,-305.7709 73.95536,-453.98801 l -40.33937,-9.86934 c -37.59275,82.99433 -64.31763,171.7489 -144.54914,226.85584 -87.96005,60.41311 -204.03646,52.77444 -305.90664,52.77444 h -571.4738 l 582.52833,-688.61038 -525.23554,-642.55362 305.76105,-1.19156 c 196.01216,0 474.85115,-46.3286 552.41015,184.22704 13.25834,39.41135 22.44892,80.33935 25.78706,121.72134 h 43.70096 l -33.6162,-398.06183 z"
       style="font-size:12px;fill:#f2b1b1;fill-opacity:1;fill-rule:evenodd;stroke-width:3.32549524"
       id="path603" />
  </g>
  <g
     inkscape:groupmode="layer"
     id="layer5"
     inkscape:label="Text"
     transform="translate(1330.0506,1945.5626)">
    <text
       xml:space="preserve"
       style="font-style:normal;font-weight:normal;font-size:501.38668823px;line-height:1.25;font-family:sans-serif;letter-spacing:0px;word-spacing:0px;fill:#c81f1f;fill-opacity:1;stroke:none;stroke-width:12.53466702"
       x="-1107.8174"
       y="112.66536"
       id="text1127"
       transform="scale(1.0316705,0.96930171)"><tspan
         sodipodi:role="line"
         id="tspan1125"
         x="-1107.8174"
         y="112.66536"
         style="font-style:normal;font-variant:normal;font-weight:bold;font-stretch:normal;font-size:501.38668823px;font-family:Arial;-inkscape-font-specification:'Arial, Bold';font-variant-ligatures:normal;font-variant-caps:normal;font-variant-numeric:normal;font-feature-settings:normal;text-align:start;writing-mode:lr-tb;text-anchor:start;fill:#c81f1f;fill-opacity:1;stroke-width:12.53466702">PSICOSTAT</tspan><tspan
         sodipodi:role="line"
         x="-1107.8174"
         y="745.2027"
         style="fill:#c81f1f;fill-opacity:1;stroke-width:12.53466702"
         id="tspan1129" /></text>
  </g>
</svg>
