<?xml version="1.0" encoding="UTF-8" standalone="no"?>
<!DOCTYPE svg PUBLIC "-//W3C//DTD SVG 1.0//EN" "http://www.w3.org/TR/2001/REC-SVG-20010904/DTD/svg10.dtd">
<!-- Created with Inkscape (http://www.inkscape.org/) -->
<svg
   xmlns:svg="http://www.w3.org/2000/svg"
   xmlns="http://www.w3.org/2000/svg"
   version="1.0"
   width="150"
   height="200"
   id="svg2">
  <defs
     id="defs4" />
  <path
     d="M 18.005081,19.50452 C 19.646851,19.431663 21.079168,19.602494 22.302039,20.017014 C 23.524881,20.431652 24.167231,21.527469 24.229088,23.304471 C 24.120315,25.266227 23.359012,27.087188 21.945177,28.767362 C 20.531316,30.447635 19.117468,32.416744 17.70363,34.674695 C 16.289773,36.932733 15.528471,39.909235 15.419723,43.604209 C 15.431686,47.631272 17.346764,51.227055 21.164961,54.39157 C 24.983133,57.556134 30.632611,59.226944 38.113414,59.404006 C 38.715836,59.408192 39.186626,59.399858 39.525785,59.379005 C 39.864882,59.358191 40.479303,59.299859 41.369049,59.204009 L 41.369049,70.503863 C 41.209115,72.928316 40.091362,74.704332 38.015791,75.831918 C 35.94016,76.95951 33.866115,77.516794 31.793652,77.503773 L 31.793652,79.003754 L 60.711351,79.003754 L 60.711351,77.503773 C 58.552846,77.387108 56.45424,76.570453 54.415526,75.053803 C 52.37672,73.537161 51.283531,72.020516 51.135954,70.503863 L 51.135954,59.204009 C 52.025624,59.299861 52.640045,59.358193 52.979218,59.379006 C 53.318301,59.399859 53.789091,59.408192 54.391589,59.404006 C 61.872316,59.226944 67.521794,57.556133 71.340042,54.391568 C 75.158163,51.227052 77.073241,47.63127 77.08528,43.604209 C 76.976454,39.909233 76.215152,36.932731 74.801369,34.674695 C 73.387454,32.416746 71.973607,30.447638 70.559821,28.767363 C 69.145912,27.087189 68.38461,25.266227 68.275915,23.304471 C 68.337697,21.527467 68.980046,20.431649 70.202964,20.017012 C 71.425759,19.602494 72.858077,19.431663 74.499923,19.50452 C 76.621404,19.596825 78.111573,19.965803 78.970436,20.611454 C 79.829157,21.257222 80.541327,21.626199 81.106947,21.718388 C 81.55921,21.727503 81.910734,21.636133 82.161521,21.444277 C 82.412158,21.252536 82.539404,20.905947 82.543257,20.404508 C 82.449422,18.575425 81.607586,16.783783 80.017745,15.029576 C 78.42776,13.275497 76.652324,12.333844 74.691431,12.204614 C 71.609287,12.20468 69.083778,13.179667 67.114897,15.129576 C 65.145899,17.079613 64.128514,20.004572 64.06274,23.904463 C 64.210303,27.019058 64.800786,30.114849 65.834187,33.191844 C 66.867474,36.268931 67.457956,39.539719 67.605637,43.004217 C 67.691357,47.829185 66.490444,51.204137 64.002893,53.129085 C 61.515231,55.054085 57.226256,55.979073 51.135954,55.904051 L 51.135954,21.304497 C 51.231665,18.712923 52.141326,16.921281 53.864941,15.929566 C 55.588464,14.937976 57.551419,14.396317 59.753811,14.304587 L 59.753811,12.804606 L 32.751191,12.804606 L 32.751191,14.304587 C 35.079182,14.54423 37.078044,15.090056 38.747782,15.942065 C 40.417459,16.7942 41.291214,18.615009 41.369049,21.404495 L 41.369049,55.904051 C 35.278669,55.979073 30.989693,55.054085 28.502107,53.129087 C 26.014481,51.20414 24.813569,47.829187 24.899366,43.004217 C 25.046969,39.539719 25.63745,36.268931 26.670814,33.191844 C 27.704139,30.114849 28.294622,27.019058 28.442263,23.904463 C 28.376413,20.004572 27.359028,17.079612 25.390106,15.129575 C 23.421149,13.179664 20.89564,12.204678 17.813572,12.204614 C 15.852601,12.333846 14.077164,13.275499 12.487256,15.029577 C 10.897339,16.783783 10.055503,18.575425 9.9617467,20.404508 C 9.9655214,20.905949 10.092765,21.252539 10.343478,21.44428 C 10.594187,21.636136 10.945713,21.727505 11.398056,21.718388 C 11.9636,21.626199 12.67577,21.257221 13.534568,20.611451 C 14.393354,19.965798 15.883525,19.596821 18.005081,19.50452 L 18.005081,19.50452 z M 126.26492,80.003741 C 131.61113,79.116714 135.7711,76.835264 138.74485,73.159383 C 141.71849,69.483513 143.79316,65.135425 144.96886,60.115106 C 146.14445,55.094824 146.70833,50.124524 146.66051,45.204189 C 146.78015,42.54801 146.46894,39.885547 145.72692,37.216791 C 144.98475,34.548119 143.09362,33.110639 140.05349,32.904347 C 138.92234,32.954394 137.97677,33.429387 137.21678,34.329329 C 136.45668,35.22936 136.06169,36.254346 136.03183,37.404289 C 136.23525,40.716786 137.04916,44.04174 138.47354,47.379162 C 139.89784,50.716647 140.71175,54.291597 140.91527,58.104023 C 140.86535,62.860227 139.52879,67.097669 136.90558,70.81636 C 134.28227,74.535067 130.67155,76.797536 126.07341,77.603772 L 124.34983,21.104499 L 121.95599,21.104499 L 119.27488,77.603772 C 115.23323,77.382942 112.1372,76.099626 109.98675,73.75382 C 107.83625,71.408024 106.75103,68.124737 106.73111,63.903948 C 106.74705,60.858173 106.81088,57.824882 106.92262,54.804065 C 107.03431,51.783297 107.09815,48.750006 107.11413,45.704182 C 107.12807,42.633425 106.38198,39.775131 104.87588,37.129291 C 103.36973,34.483535 101.01977,33.075222 97.825987,32.904347 C 94.033723,33.023142 91.468316,34.360623 90.129762,36.916796 C 88.791198,39.473054 88.164808,42.535511 88.250591,46.104177 L 88.250591,49.204137 L 91.027457,49.204137 L 91.027457,46.504172 C 90.951647,44.314652 91.199012,42.218848 91.769551,40.216752 C 92.340079,38.214735 93.688613,37.143916 95.815155,37.004294 C 97.245471,37.093918 98.143157,37.739742 98.508234,38.941769 C 98.873281,40.143875 99.028883,41.364692 98.97504,42.604222 C 98.959068,45.50005 98.895228,48.383343 98.78353,51.254109 C 98.671803,54.124931 98.607963,57.008225 98.592019,59.904 C 98.715687,66.360177 100.67066,71.272608 104.45695,74.641308 C 108.2432,78.010016 113.11867,79.797492 119.08337,80.003741 L 118.22159,101.40347 L 127.22246,101.40347 L 126.26492,80.003741 z"
     id="text2403"
     style="font-size:100px;font-style:normal;font-variant:normal;font-weight:normal;font-stretch:normal;fill:#000000;fill-opacity:1;stroke:none;stroke-width:1px;stroke-linecap:butt;stroke-linejoin:miter;stroke-opacity:1;font-family:FreeSerif;-inkscape-font-specification:FreeSerif" />
  <path
     d="M 49.729362,160.31503 C 56.384213,160.40463 61.842184,158.87549 66.103291,155.72759 C 70.364278,152.57974 72.566617,147.27564 72.710315,139.81529 L 72.710315,104.51575 L 64.092458,106.51572 L 64.092458,137.61532 C 64.122324,143.03612 62.889493,146.8444 60.39396,149.04017 C 57.898319,151.23601 53.960441,152.29432 48.580315,152.21513 L 46.090711,152.21513 L 46.090711,106.51572 L 37.85587,106.51572 L 37.85587,152.21513 L 35.366266,152.21513 C 29.944174,152.28807 25.994326,151.21725 23.516711,149.00267 C 21.039061,146.78815 19.8182,142.99237 19.854123,137.61532 L 19.854123,106.51572 L 11.236266,104.51575 L 11.236266,139.81529 C 11.188385,146.13816 13.007709,151.11726 16.694242,154.7526 C 20.380755,158.38799 26.221741,160.24213 34.217219,160.31503 L 37.472854,160.31503 L 37.472854,177.41481 L 46.473727,177.41481 L 46.473727,160.31503 L 49.729362,160.31503 z M 136.87986,156.01509 L 136.87986,125.01548 L 128.262,125.01548 L 128.262,153.21512 C 128.32778,158.9984 127.21465,163.28167 124.92258,166.06495 C 122.63042,168.84826 118.76437,170.23158 113.32438,170.2149 L 113.32438,126.81546 L 105.08954,126.81546 L 105.08954,170.2149 C 99.649492,170.23783 95.783432,168.86701 93.49134,166.10245 C 91.199215,163.33792 90.086076,159.04215 90.15192,153.21512 L 90.15192,125.01548 L 81.534063,125.01548 L 81.534063,156.01509 C 81.623828,163.52125 83.766321,169.00867 87.961549,172.47737 C 92.156756,175.94608 97.86608,177.65856 105.08954,177.61481 L 105.08954,197.41455 L 113.32438,197.41455 L 113.32438,177.61481 C 120.63156,177.63981 126.36482,175.88983 130.52419,172.36487 C 134.68344,168.83993 136.80199,163.39 136.87986,156.01509 L 136.87986,156.01509 z"
     id="text2407"
     style="font-size:100px;font-style:normal;font-variant:normal;font-weight:normal;font-stretch:normal;fill:#000000;fill-opacity:1;stroke:none;stroke-width:1px;stroke-linecap:butt;stroke-linejoin:miter;stroke-opacity:1;font-family:FreeSans;-inkscape-font-specification:FreeSans" />
</svg>
