<?xml version="1.0" encoding="UTF-8" standalone="no"?>
<svg
   xmlns:dc="http://purl.org/dc/elements/1.1/"
   xmlns:cc="http://creativecommons.org/ns#"
   xmlns:rdf="http://www.w3.org/1999/02/22-rdf-syntax-ns#"
   xmlns:svg="http://www.w3.org/2000/svg"
   xmlns="http://www.w3.org/2000/svg"
   xmlns:sodipodi="http://sodipodi.sourceforge.net/DTD/sodipodi-0.dtd"
   xmlns:inkscape="http://www.inkscape.org/namespaces/inkscape"
   version="1.0"
   width="325.78931"
   height="376.18909"
   viewBox="0 0 3257.8931 3761.8909"
   preserveAspectRatio="xMidYMid meet"
   id="svg29"
   sodipodi:docname="logo_3.svg"
   inkscape:version="0.92.4 (5da689c313, 2019-01-14)"
   inkscape:label="Layer">
  <metadata
     id="metadata35">
    <rdf:RDF>
      <cc:Work
         rdf:about="">
        <dc:format>image/svg+xml</dc:format>
        <dc:type
           rdf:resource="http://purl.org/dc/dcmitype/StillImage" />
      </cc:Work>
    </rdf:RDF>
  </metadata>
  <defs
     id="defs33">
    <inkscape:path-effect
       only_selected="false"
       apply_with_weight="true"
       apply_no_weight="true"
       helper_size="0"
       steps="2"
       weight="33.333333"
       is_visible="true"
       id="path-effect980-6-2"
       effect="bspline" />
    <inkscape:path-effect
       only_selected="false"
       apply_with_weight="true"
       apply_no_weight="true"
       helper_size="0"
       steps="2"
       weight="33.333333"
       is_visible="true"
       id="path-effect984-7-1"
       effect="bspline" />
    <inkscape:path-effect
       only_selected="false"
       apply_with_weight="true"
       apply_no_weight="true"
       helper_size="0"
       steps="2"
       weight="33.333333"
       is_visible="true"
       id="path-effect984-0-8-0"
       effect="bspline" />
    <inkscape:path-effect
       only_selected="false"
       apply_with_weight="true"
       apply_no_weight="true"
       helper_size="0"
       steps="2"
       weight="33.333333"
       is_visible="true"
       id="path-effect980-3-1-0"
       effect="bspline" />
    <inkscape:path-effect
       only_selected="false"
       apply_with_weight="true"
       apply_no_weight="true"
       helper_size="0"
       steps="2"
       weight="33.333333"
       is_visible="true"
       id="path-effect1024-7-2"
       effect="bspline" />
    <inkscape:path-effect
       only_selected="false"
       apply_with_weight="true"
       apply_no_weight="true"
       helper_size="0"
       steps="2"
       weight="33.333333"
       is_visible="true"
       id="path-effect1024-8-4-2"
       effect="bspline" />
  </defs>
  <sodipodi:namedview
     pagecolor="#ffffff"
     bordercolor="#666666"
     borderopacity="1"
     objecttolerance="10"
     gridtolerance="10"
     guidetolerance="10"
     inkscape:pageopacity="0"
     inkscape:pageshadow="2"
     inkscape:window-width="1920"
     inkscape:window-height="1027"
     id="namedview31"
     showgrid="false"
     inkscape:zoom="1.1661718"
     inkscape:cx="97.422236"
     inkscape:cy="130.9616"
     inkscape:window-x="-8"
     inkscape:window-y="-8"
     inkscape:window-maximized="1"
     inkscape:current-layer="layer5" />
  <g
     inkscape:groupmode="layer"
     id="layer1"
     inkscape:label="White Background"
     transform="translate(1330.0506,1945.5626)" />
  <g
     inkscape:groupmode="layer"
     id="layer2"
     inkscape:label="Red Background"
     transform="translate(1330.0506,1945.5626)">
    <g
       id="g1078-4-2"
       transform="matrix(33.572758,0,0,33.572758,-572.84296,-3398.5847)"
       style="opacity:0.2;fill:none;fill-opacity:0.16017318;stroke:#c81f1f;stroke-opacity:1" />
    <g
       style="visibility:visible;fill-rule:evenodd"
       visibility="visible"
       id="Default"
       transform="matrix(0.88960133,0,0,0.88960133,-4135.2013,-329.09609)">
      <desc
         id="desc903">Master slide</desc>
    </g>
  </g>
  <g
     inkscape:groupmode="layer"
     id="layer4"
     inkscape:label="White Logo"
     transform="translate(1330.0506,1945.5626)">
    <path
       sodipodi:type="star"
       style="fill:#ffffff;fill-opacity:1;stroke:#000000;stroke-width:5;stroke-miterlimit:4;stroke-dasharray:none;stroke-opacity:1"
       id="path830-5"
       sodipodi:sides="6"
       sodipodi:cx="298.89597"
       sodipodi:cy="-64.617165"
       sodipodi:r1="1878.0587"
       sodipodi:r2="1626.4464"
       sodipodi:arg1="1.5707963"
       sodipodi:arg2="2.0943951"
       inkscape:flatsided="true"
       inkscape:rounded="0"
       inkscape:randomized="0"
       d="m 298.89602,1813.4416 -1626.44662,-939.02936 0,-1878.05874 1626.44652,-939.0294 1626.44658,939.0293 0,1878.05875 z"
       inkscape:transform-center-x="1.2305691e-06"
       inkscape:transform-center-y="9.9083514e-06" />
    <path
       sodipodi:type="star"
       style="fill:#c81f1f;fill-opacity:1;stroke:none;stroke-width:10.40498066;stroke-opacity:1"
       id="path830-3-2"
       sodipodi:sides="6"
       sodipodi:cx="298.89597"
       sodipodi:cy="-64.617165"
       sodipodi:r1="1842.6305"
       sodipodi:r2="1595.7646"
       sodipodi:arg1="1.5707963"
       sodipodi:arg2="2.0943951"
       inkscape:flatsided="true"
       inkscape:rounded="0"
       inkscape:randomized="0"
       d="m 298.89601,1778.0133 -1595.76481,-921.31518 -10e-5,-1842.63049 1595.76482,-921.31533 1595.76488,921.31525 0,1842.63049 z"
       inkscape:transform-center-x="-9.7281251e-05"
       inkscape:transform-center-y="0.00010868039" />
    <path
       sodipodi:type="star"
       style="fill:#ffffff;fill-opacity:1;stroke:none;stroke-width:9.69768047;stroke-opacity:1"
       id="path830-3"
       sodipodi:sides="6"
       sodipodi:cx="298.89597"
       sodipodi:cy="-64.617165"
       sodipodi:r1="1717.3738"
       sodipodi:r2="1487.2893"
       sodipodi:arg1="1.5707963"
       sodipodi:arg2="2.0943951"
       inkscape:flatsided="true"
       inkscape:rounded="0"
       inkscape:randomized="0"
       d="m 298.89601,1652.7566 -1487.28931,-858.68684 -10e-5,-1717.37377 1487.28932,-858.68689 1487.28938,858.68681 0,1717.37378 z"
       inkscape:transform-center-x="-7.1981087e-06"
       inkscape:transform-center-y="0.00011094779" />
  </g>
  <g
     inkscape:groupmode="layer"
     id="layer3"
     inkscape:label="Sigma/Psi"
     transform="translate(1330.0506,1945.5626)">
    <path
       inkscape:connector-curvature="0"
       d="m 426.50268,-863.95346 1.3665,50.27333 633.07812,768.693123 -640.10022,741.805577 -1.8487,46.71572 1241.21562,-6.26561 c 12.1219,-149.62417 45.4219,-304.3503 73.9554,-451.8788 L 1693.83,275.5664 c -37.5928,82.60873 -64.3176,170.95096 -144.5491,225.80187 -87.9601,60.13244 -204.0365,52.52926 -305.9067,52.52926 H 671.90038 l 582.52832,-685.41113 -525.23552,-639.56834 305.76112,-1.18602 c 196.0121,0 474.8511,-46.11337 552.4101,183.37113 13.2583,39.22824 22.4489,79.96609 25.7871,121.15582 h 43.7009 l -33.6162,-396.21245 z"
       style="font-size:12px;fill:#f2b1b1;fill-opacity:1;fill-rule:evenodd;stroke-width:3.31776118"
       id="path603" />
    <path
       inkscape:connector-curvature="0"
       d="m -988.14314,-676.68394 c 36.0926,-1.74809 67.5807,2.35054 94.46423,12.29588 26.88289,9.94822 41.00429,36.2396 42.36422,78.87415 -2.39141,47.06738 -19.12781,90.75662 -50.20943,131.06798 -31.08222,40.31375 -62.16432,87.55748 -93.24622,141.73142 -31.08206,54.17562 -47.81866,125.58933 -50.20926,214.24062 0.2629,96.61894 42.364,182.890672 126.30316,258.81494 83.93855,75.92548 208.13661,116.01226 372.59437,120.2606 13.24381,0.10076 23.59364,-0.0984 31.04951,-0.59982 7.45476,-0.49927 20.96216,-1.89899 40.52241,-4.19867 v 271.11082 c -3.5159,58.16867 -28.08871,100.77947 -73.71801,127.83308 -45.6306,27.05363 -91.22647,40.4244 -136.78739,40.11169 v 35.98841 h 635.726129 v -35.98841 c -47.45244,-2.79886 -93.588229,-22.39256 -138.407189,-58.78067 -44.82115,-36.38787 -68.85382,-72.77575 -72.09821,-109.1641 V 275.80316 c 19.55848,2.29968 33.0661,3.69916 40.52241,4.19867 7.45431,0.50024 17.80416,0.70034 31.04951,0.59982 164.456209,-4.24834 288.65405,-44.33512 372.59437,-120.2606 83.93748,-75.924517 126.03855,-162.196 126.30325,-258.81494 -2.39252,-88.65153 -19.12893,-160.065 -50.20944,-214.24062 -31.08357,-54.1737 -62.16541,-101.41742 -93.24614,-141.73142 -31.08336,-40.31136 -47.81977,-84.0006 -50.20922,-131.06798 1.35818,-42.63455 15.4796,-68.92593 42.36402,-78.87415 26.88201,-9.94534 58.3701,-14.04397 94.46428,-12.29588 46.63857,2.2145 79.39843,11.06723 98.27982,26.55794 18.87808,15.49358 34.53441,24.34631 46.96898,26.55817 9.94248,0.21834 17.67029,-1.97338 23.18365,-6.57656 5.51008,-4.6003 8.30731,-12.91584 8.39217,-24.9466 -2.06276,-43.88407 -20.56976,-86.8701 -55.52076,-128.95761 -34.95432,-42.08464 -73.98554,-64.67734 -117.09372,-67.77789 -67.75769,0.001 -123.27845,23.39405 -166.562269,70.17713 -43.286448,46.78595 -65.652747,116.96284 -67.098626,210.53066 3.243956,74.72681 16.225277,149.00232 38.943524,222.82677 22.715612,73.82687 35.696934,152.30106 38.943531,235.42282 1.88445,115.7625071 -24.516535,196.735982 -79.202796,242.91996 -54.688665,46.18543 -148.977304,68.37818 -282.866544,66.57827 v -830.12717 c 2.10408,-62.17829 22.10224,-105.16408 59.99405,-128.95761 37.88984,-23.79065 81.04351,-36.78639 129.460809,-38.98721 v -35.98816 H -663.96502 v 35.98816 c 51.17849,5.74954 95.12139,18.84533 131.82892,39.28711 36.70621,20.44467 55.91472,64.13032 57.62595,131.05696 v 827.72792 c -133.8908,1.79991 -228.17964,-20.3926 -282.86655,-66.57803 -54.68801,-46.184218 -81.08879,-127.1574549 -79.20256,-242.9202 3.24483,-83.12176 16.22593,-161.59595 38.94329,-235.42282 22.71672,-73.82445 35.69782,-148.09996 38.94353,-222.82677 -1.44764,-93.56782 -23.81371,-163.74471 -67.09841,-210.53066 -43.28558,-46.78331 -98.80629,-70.17545 -166.56249,-70.17713 -43.10996,3.10078 -82.14116,25.69325 -117.09346,67.77789 -34.9527,42.08751 -53.4597,85.07354 -55.5208,128.95761 0.083,12.03076 2.8804,20.3463 8.392,24.9466 5.5116,4.60318 13.2395,6.79538 23.1838,6.57656 12.4329,-2.21186 28.0891,-11.06459 46.969,-26.55817 18.8795,-15.49071 51.6396,-24.34344 98.27966,-26.55794 z"
       id="text2403"
       style="font-style:normal;font-variant:normal;font-weight:normal;font-stretch:normal;font-size:100px;font-family:FreeSerif;-inkscape-font-specification:FreeSerif;fill:#f2b1b1;fill-opacity:1;stroke:none;stroke-width:22.9662571px;stroke-linecap:butt;stroke-linejoin:miter;stroke-opacity:1"
       sodipodi:nodetypes="ccccccccccccccccccccccccccccccccccscccccccccccccccccccccccccc" />
  </g>
  <g
     inkscape:groupmode="layer"
     id="layer5"
     inkscape:label="Text"
     transform="translate(1330.0506,1945.5626)">
    <text
       xml:space="preserve"
       style="font-style:normal;font-weight:normal;font-size:501.38668823px;line-height:1.25;font-family:sans-serif;letter-spacing:0px;word-spacing:0px;fill:#c81f1f;fill-opacity:1;stroke:none;stroke-width:12.53466702"
       x="-1121.6538"
       y="112.66535"
       id="text1127"
       transform="scale(1.0316705,0.96930172)"><tspan
         sodipodi:role="line"
         id="tspan1125"
         x="-1121.6538"
         y="112.66535"
         style="font-style:normal;font-variant:normal;font-weight:bold;font-stretch:normal;font-size:501.38668823px;font-family:Arial;-inkscape-font-specification:'Arial, Bold';font-variant-ligatures:normal;font-variant-caps:normal;font-variant-numeric:normal;font-feature-settings:normal;text-align:start;writing-mode:lr-tb;text-anchor:start;fill:#c81f1f;fill-opacity:1;stroke-width:12.53466702">PSICOSTAT</tspan><tspan
         sodipodi:role="line"
         x="-1121.6538"
         y="745.2027"
         style="fill:#c81f1f;fill-opacity:1;stroke-width:12.53466702"
         id="tspan1129" /></text>
  </g>
</svg>
