<?xml version="1.0" encoding="UTF-8" standalone="no"?>
<svg
   xmlns:dc="http://purl.org/dc/elements/1.1/"
   xmlns:cc="http://creativecommons.org/ns#"
   xmlns:rdf="http://www.w3.org/1999/02/22-rdf-syntax-ns#"
   xmlns:svg="http://www.w3.org/2000/svg"
   xmlns="http://www.w3.org/2000/svg"
   xmlns:sodipodi="http://sodipodi.sourceforge.net/DTD/sodipodi-0.dtd"
   xmlns:inkscape="http://www.inkscape.org/namespaces/inkscape"
   version="1.0"
   width="200"
   height="230.2101"
   viewBox="0 0 2000 2302.101"
   preserveAspectRatio="xMidYMid meet"
   id="svg29"
   sodipodi:docname="Psicostat_hexagon.svg"
   inkscape:version="0.92.4 (5da689c313, 2019-01-14)">
  <metadata
     id="metadata35">
    <rdf:RDF>
      <cc:Work
         rdf:about="">
        <dc:format>image/svg+xml</dc:format>
        <dc:type
           rdf:resource="http://purl.org/dc/dcmitype/StillImage" />
      </cc:Work>
    </rdf:RDF>
  </metadata>
  <defs
     id="defs33" />
  <sodipodi:namedview
     pagecolor="#ffffff"
     bordercolor="#666666"
     borderopacity="1"
     objecttolerance="10"
     gridtolerance="10"
     guidetolerance="10"
     inkscape:pageopacity="0"
     inkscape:pageshadow="2"
     inkscape:window-width="1920"
     inkscape:window-height="1000"
     id="namedview31"
     showgrid="false"
     inkscape:zoom="0.14577148"
     inkscape:cx="-1782.8953"
     inkscape:cy="356.93777"
     inkscape:window-x="-11"
     inkscape:window-y="1339"
     inkscape:window-maximized="1"
     inkscape:current-layer="svg29" />
  <g
     id="layer101"
     transform="matrix(0.19268371,0,0,0.19268371,-166.67141,-3.5810865)"
     style="fill:#c81f1f;stroke:none">
    <path
       d="m 5958,11954 c -21,-9 -38,-20 -38,-25 0,-5 -9,-9 -20,-9 -11,0 -20,-4 -20,-9 0,-5 -17,-16 -37,-25 -38,-15 -94,-46 -103,-56 -5,-6 -42,-28 -120,-73 -19,-11 -48,-28 -65,-38 -16,-10 -56,-32 -87,-48 -32,-16 -67,-39 -80,-50 -12,-12 -25,-21 -30,-21 -12,0 -192,-103 -196,-112 -2,-5 -12,-8 -23,-8 -10,0 -19,-5 -19,-10 0,-6 -17,-18 -37,-28 -21,-9 -44,-23 -51,-29 -7,-7 -18,-13 -23,-13 -9,0 -91,-46 -147,-82 -15,-10 -43,-27 -62,-38 -54,-31 -73,-43 -102,-62 -15,-10 -32,-18 -38,-18 -11,0 -91,-49 -100,-62 -3,-4 -21,-14 -40,-23 -19,-9 -53,-27 -75,-40 -22,-14 -47,-28 -55,-32 -8,-3 -27,-15 -42,-25 -14,-10 -32,-18 -38,-18 -7,0 -20,-8 -29,-18 -9,-10 -23,-21 -31,-25 -8,-4 -51,-27 -95,-52 -44,-24 -102,-56 -130,-71 -27,-15 -63,-36 -80,-48 -44,-31 -64,-43 -121,-71 -29,-14 -69,-37 -90,-52 -22,-14 -52,-34 -69,-43 -16,-9 -55,-31 -85,-49 -30,-18 -62,-36 -70,-40 -8,-4 -28,-16 -45,-25 -16,-10 -38,-20 -47,-23 -10,-3 -18,-10 -18,-15 0,-5 -19,-18 -42,-29 -24,-11 -61,-31 -83,-44 -22,-14 -66,-37 -97,-52 -32,-16 -57,-33 -58,-39 0,-6 -17,-18 -37,-27 -21,-9 -69,-35 -108,-57 -38,-21 -83,-46 -100,-55 -30,-16 -88,-55 -112,-75 -7,-5 -18,-10 -25,-10 -7,0 -24,-9 -38,-20 -14,-11 -33,-20 -42,-20 -10,0 -18,-4 -18,-8 0,-4 -20,-18 -45,-30 -25,-12 -45,-25 -45,-30 0,-4 -16,-14 -35,-21 -19,-7 -35,-17 -35,-22 0,-5 -9,-9 -20,-9 -11,0 -20,-4 -20,-8 0,-4 -19,-18 -43,-31 -99,-53 -113,-60 -123,-68 -22,-17 -52,-34 -119,-69 -38,-20 -72,-40 -75,-44 -3,-4 -29,-20 -59,-35 -29,-14 -63,-35 -74,-46 -12,-10 -26,-19 -32,-19 -7,0 -22,-9 -35,-20 -13,-11 -31,-20 -40,-20 -10,0 -23,-6 -29,-13 -6,-8 -29,-22 -51,-32 -22,-10 -40,-22 -40,-27 0,-4 -9,-8 -19,-8 -11,0 -21,-4 -23,-9 -3,-10 -48,-38 -115,-73 -24,-12 -43,-26 -43,-30 0,-4 -8,-8 -17,-8 -16,0 -86,-41 -120,-70 -7,-5 -17,-10 -23,-10 -6,0 -23,-8 -38,-19 -52,-35 -87,-56 -152,-89 -35,-18 -67,-36 -70,-40 -10,-14 -69,-52 -81,-52 -6,0 -23,-8 -37,-18 -15,-10 -34,-22 -42,-25 -8,-4 -28,-15 -45,-25 l -30,-19 v -329 c 0,-181 4,-1538 9,-3015 l 9,-2685 31,-19 c 17,-10 57,-32 88,-48 32,-16 58,-32 58,-37 0,-4 12,-13 27,-20 16,-6 51,-24 78,-40 28,-16 64,-36 80,-45 17,-8 48,-27 70,-40 22,-14 47,-28 55,-32 8,-3 22,-12 30,-19 13,-11 73,-43 199,-108 20,-10 38,-22 41,-26 6,-9 80,-51 181,-104 64,-34 131,-75 156,-96 7,-5 19,-10 27,-10 8,0 21,-6 29,-14 8,-8 29,-22 48,-30 19,-9 43,-21 54,-28 11,-7 43,-26 70,-42 28,-17 52,-33 55,-36 3,-3 32,-19 65,-36 33,-17 76,-40 96,-52 20,-11 47,-26 60,-34 13,-7 32,-19 41,-26 18,-15 46,-30 143,-81 87,-46 128,-69 134,-78 3,-4 24,-17 45,-28 96,-49 111,-58 114,-66 2,-5 11,-9 20,-9 10,0 28,-9 42,-20 14,-11 30,-20 36,-20 5,0 19,-8 30,-18 11,-10 58,-38 104,-62 47,-24 96,-52 109,-62 13,-10 32,-18 42,-18 11,0 19,-4 19,-10 0,-5 6,-10 13,-10 6,0 25,-11 40,-24 16,-14 56,-39 90,-56 78,-40 111,-59 165,-93 61,-40 136,-82 162,-91 8,-3 33,-17 55,-31 22,-14 55,-32 73,-40 17,-8 32,-19 32,-24 0,-5 14,-14 30,-20 17,-5 38,-17 46,-26 8,-8 24,-15 35,-15 10,0 19,-4 19,-9 0,-5 17,-16 37,-25 59,-25 106,-54 115,-71 5,-8 17,-15 28,-15 10,0 20,-3 22,-7 3,-8 117,-70 195,-108 24,-11 43,-26 43,-32 0,-7 7,-13 16,-13 9,0 27,-9 41,-20 14,-11 34,-20 44,-20 9,0 19,-4 21,-8 2,-5 37,-27 78,-51 41,-23 93,-53 115,-67 22,-13 50,-28 62,-34 11,-5 24,-13 27,-18 3,-6 18,-13 32,-16 14,-4 38,-15 53,-25 50,-34 106,-69 151,-94 25,-13 61,-34 80,-45 19,-12 51,-28 69,-37 19,-9 49,-27 67,-40 18,-14 37,-25 43,-25 6,0 11,-4 11,-10 0,-5 7,-10 16,-10 9,0 28,-8 42,-19 15,-10 37,-22 50,-25 12,-4 22,-11 22,-16 0,-5 17,-14 37,-21 20,-6 42,-16 47,-21 48,-39 60,-47 86,-58 17,-7 30,-16 30,-21 0,-5 8,-9 18,-9 9,0 33,-10 52,-22 145,-91 216,-109 286,-70 17,9 52,28 77,41 26,14 47,29 47,33 0,4 8,8 18,8 14,0 77,36 117,67 6,5 21,14 35,21 14,7 43,23 65,36 22,14 68,38 103,56 34,17 62,34 62,38 0,4 18,16 40,26 22,11 40,23 40,28 0,4 7,8 15,8 9,0 27,8 41,17 45,29 88,53 117,64 15,6 27,15 27,20 0,5 5,9 11,9 6,0 25,10 42,23 46,32 69,46 97,58 32,14 39,18 135,76 44,26 87,52 95,56 8,4 33,19 55,32 22,13 58,33 80,44 49,25 72,41 97,64 10,9 25,17 33,17 9,0 28,8 43,19 46,31 85,54 142,84 30,16 57,33 60,37 3,5 37,25 75,45 39,20 88,47 110,61 22,13 56,31 75,39 19,9 37,19 40,23 8,12 61,45 125,78 90,47 108,57 140,80 17,12 50,32 75,46 25,14 61,35 80,46 19,12 50,28 69,37 18,8 55,31 81,50 26,19 53,35 59,35 7,0 24,8 39,18 42,28 64,41 102,60 19,9 41,23 48,30 7,6 19,12 27,12 7,0 15,6 18,13 2,7 38,29 78,50 41,21 92,49 114,63 22,13 52,29 68,35 15,6 27,14 27,18 0,4 15,15 33,24 17,10 46,26 63,36 17,10 63,35 102,55 38,21 73,44 76,52 3,7 15,14 26,14 11,0 28,8 38,18 10,9 41,28 68,42 27,13 60,32 73,42 13,10 30,18 38,18 8,0 21,6 28,13 27,23 40,33 55,40 8,4 33,18 55,31 22,13 76,43 120,66 43,24 85,48 92,54 34,30 43,36 58,36 8,0 15,4 15,9 0,5 17,16 38,25 51,22 109,55 162,91 25,17 74,46 110,64 36,19 79,43 95,52 17,10 44,26 60,35 17,9 32,20 35,24 3,3 19,14 35,22 17,9 46,24 65,33 19,10 37,22 40,25 3,4 34,22 70,40 36,18 69,39 73,46 4,8 14,14 22,14 7,0 20,6 27,13 7,6 42,27 78,46 36,18 72,39 81,47 15,13 16,268 11,3022 -3,2234 -7,3010 -16,3018 -6,7 -40,27 -76,45 -36,19 -66,37 -68,42 -2,4 -12,7 -23,7 -10,0 -19,6 -19,13 -1,6 -31,27 -68,45 -61,30 -113,58 -184,101 -62,38 -147,86 -193,111 -80,43 -130,72 -135,79 -3,3 -32,20 -65,38 -33,17 -80,43 -105,57 -25,13 -60,32 -77,40 -18,8 -33,19 -33,24 0,4 -31,23 -70,42 -39,19 -70,37 -70,42 0,4 -7,8 -16,8 -9,0 -27,9 -41,20 -14,11 -32,20 -40,20 -8,0 -19,5 -26,10 -47,40 -66,52 -133,86 -92,48 -118,63 -172,97 -63,40 -99,61 -294,164 -16,8 -28,18 -28,23 0,4 -12,13 -27,19 -16,6 -68,34 -118,61 -49,28 -102,55 -117,61 -16,6 -28,17 -28,25 0,8 -8,14 -19,14 -10,0 -30,9 -44,20 -14,11 -32,20 -41,20 -9,0 -16,4 -16,8 0,5 -18,17 -40,27 -22,10 -45,24 -51,32 -6,7 -19,13 -27,13 -15,0 -82,41 -110,68 -7,6 -22,12 -32,12 -10,0 -20,4 -22,8 -1,4 -49,34 -106,67 -57,33 -120,70 -140,82 -20,13 -52,30 -71,39 -30,13 -187,105 -231,134 -8,6 -31,18 -50,28 -19,9 -37,19 -40,22 -3,3 -31,18 -62,35 -32,16 -58,32 -58,36 0,4 -17,14 -37,24 -58,25 -117,57 -123,64 -3,4 -34,22 -69,40 -35,18 -69,37 -75,42 -29,24 -88,59 -101,59 -7,0 -20,6 -28,14 -8,8 -29,22 -48,30 -19,9 -47,25 -64,36 -37,24 -70,43 -171,98 -43,23 -97,54 -119,67 -22,14 -49,30 -60,35 -11,6 -40,24 -65,40 -25,16 -56,34 -70,40 -14,5 -32,15 -40,20 -8,6 -25,14 -38,20 -22,10 -83,50 -92,61 -3,4 -16,10 -30,14 -14,4 -32,13 -40,20 -8,7 -49,30 -90,51 -41,21 -81,43 -88,48 -7,6 -18,16 -25,21 -7,6 -46,28 -87,49 -94,49 -142,75 -157,88 -22,18 -125,19 -165,2 z"
       id="path2"
       inkscape:connector-curvature="0" />
  </g>
  <g
     id="layer102"
     transform="matrix(0.19268371,0,0,0.19268371,-166.67141,-3.5810865)"
     style="fill:#f2b1b1;stroke:none">
    <path
       d="m 5958,11954 c -21,-9 -38,-20 -38,-25 0,-5 -9,-9 -20,-9 -11,0 -20,-4 -20,-9 0,-5 -17,-16 -37,-25 -38,-15 -94,-46 -103,-56 -5,-6 -42,-28 -120,-73 -19,-11 -48,-28 -65,-38 -16,-10 -56,-32 -87,-48 -32,-16 -67,-39 -80,-50 -12,-12 -25,-21 -30,-21 -12,0 -192,-103 -196,-112 -2,-5 -12,-8 -23,-8 -10,0 -19,-5 -19,-10 0,-6 -17,-18 -37,-28 -21,-9 -44,-23 -51,-29 -7,-7 -18,-13 -23,-13 -9,0 -91,-46 -147,-82 -15,-10 -43,-27 -62,-38 -54,-31 -73,-43 -102,-62 -15,-10 -32,-18 -38,-18 -11,0 -91,-49 -100,-62 -3,-4 -21,-14 -40,-23 -19,-9 -53,-27 -75,-40 -22,-14 -47,-28 -55,-32 -8,-3 -27,-15 -42,-25 -14,-10 -32,-18 -38,-18 -7,0 -20,-8 -29,-18 -9,-10 -23,-21 -31,-25 -8,-4 -51,-27 -95,-52 -44,-24 -102,-56 -130,-71 -27,-15 -63,-36 -80,-48 -44,-31 -64,-43 -121,-71 -29,-14 -69,-37 -90,-52 -22,-14 -52,-34 -69,-43 -16,-9 -55,-31 -85,-49 -30,-18 -62,-36 -70,-40 -8,-4 -28,-16 -45,-25 -16,-10 -38,-20 -47,-23 -10,-3 -18,-10 -18,-15 0,-5 -19,-18 -42,-29 -24,-11 -61,-31 -83,-44 -22,-14 -66,-37 -97,-52 -32,-16 -57,-33 -58,-39 0,-6 -17,-18 -37,-27 -21,-9 -69,-35 -108,-57 -38,-21 -83,-46 -100,-55 -30,-16 -88,-55 -112,-75 -7,-5 -18,-10 -25,-10 -7,0 -24,-9 -38,-20 -14,-11 -33,-20 -42,-20 -10,0 -18,-4 -18,-8 0,-4 -20,-18 -45,-30 -25,-12 -45,-25 -45,-30 0,-4 -16,-14 -35,-21 -19,-7 -35,-17 -35,-22 0,-5 -9,-9 -20,-9 -11,0 -20,-4 -20,-8 0,-4 -19,-18 -43,-31 -99,-53 -113,-60 -123,-68 -22,-17 -52,-34 -119,-69 -38,-20 -72,-40 -75,-44 -3,-4 -29,-20 -59,-35 -29,-14 -63,-35 -74,-46 -12,-10 -26,-19 -32,-19 -7,0 -22,-9 -35,-20 -13,-11 -31,-20 -40,-20 -10,0 -23,-6 -29,-13 -6,-8 -29,-22 -51,-32 -22,-10 -40,-22 -40,-27 0,-4 -9,-8 -19,-8 -11,0 -21,-4 -23,-9 -3,-10 -48,-38 -115,-73 -24,-12 -43,-26 -43,-30 0,-4 -8,-8 -17,-8 -16,0 -86,-41 -120,-70 -7,-5 -17,-10 -23,-10 -6,0 -23,-8 -38,-19 -52,-35 -87,-56 -152,-89 -35,-18 -67,-36 -70,-40 -10,-14 -69,-52 -81,-52 -6,0 -23,-8 -37,-18 -15,-10 -34,-22 -42,-25 -8,-4 -28,-15 -45,-25 l -30,-19 v -329 c 0,-181 4,-1538 9,-3015 l 9,-2685 31,-19 c 17,-10 57,-32 88,-48 32,-16 58,-32 58,-37 0,-4 12,-13 27,-20 16,-6 51,-24 78,-40 28,-16 64,-36 80,-45 17,-8 48,-27 70,-40 22,-14 47,-28 55,-32 8,-3 22,-12 30,-19 13,-11 73,-43 199,-108 20,-10 38,-22 41,-26 6,-9 80,-51 181,-104 64,-34 131,-75 156,-96 7,-5 19,-10 27,-10 8,0 21,-6 29,-14 8,-8 29,-22 48,-30 19,-9 43,-21 54,-28 11,-7 43,-26 70,-42 28,-17 52,-33 55,-36 3,-3 32,-19 65,-36 33,-17 76,-40 96,-52 20,-11 47,-26 60,-34 13,-7 32,-19 41,-26 18,-15 46,-30 143,-81 87,-46 128,-69 134,-78 3,-4 24,-17 45,-28 96,-49 111,-58 114,-66 2,-5 11,-9 20,-9 10,0 28,-9 42,-20 14,-11 30,-20 36,-20 5,0 19,-8 30,-18 11,-10 58,-38 104,-62 47,-24 96,-52 109,-62 13,-10 32,-18 42,-18 11,0 19,-4 19,-10 0,-5 6,-10 13,-10 6,0 25,-11 40,-24 16,-14 56,-39 90,-56 78,-40 111,-59 165,-93 61,-40 136,-82 162,-91 8,-3 33,-17 55,-31 22,-14 55,-32 73,-40 17,-8 32,-19 32,-24 0,-5 14,-14 30,-20 17,-5 38,-17 46,-26 8,-8 24,-15 35,-15 10,0 19,-4 19,-9 0,-5 17,-16 37,-25 59,-25 106,-54 115,-71 5,-8 17,-15 28,-15 10,0 20,-3 22,-7 3,-8 117,-70 195,-108 24,-11 43,-26 43,-32 0,-7 7,-13 16,-13 9,0 27,-9 41,-20 14,-11 34,-20 44,-20 9,0 19,-4 21,-8 2,-5 37,-27 78,-51 41,-23 93,-53 115,-67 22,-13 50,-28 62,-34 11,-5 24,-13 27,-18 3,-6 18,-13 32,-16 14,-4 38,-15 53,-25 50,-34 106,-69 151,-94 25,-13 61,-34 80,-45 19,-12 51,-28 69,-37 19,-9 49,-27 67,-40 18,-14 37,-25 43,-25 6,0 11,-4 11,-10 0,-5 7,-10 16,-10 9,0 28,-8 42,-19 15,-10 37,-22 50,-25 12,-4 22,-11 22,-16 0,-5 17,-14 37,-21 20,-6 42,-16 47,-21 48,-39 60,-47 86,-58 17,-7 30,-16 30,-21 0,-5 8,-9 18,-9 9,0 33,-10 52,-22 145,-91 216,-109 286,-70 17,9 52,28 77,41 26,14 47,29 47,33 0,4 8,8 18,8 14,0 77,36 117,67 6,5 21,14 35,21 14,7 43,23 65,36 22,14 68,38 103,56 34,17 62,34 62,38 0,4 18,16 40,26 22,11 40,23 40,28 0,4 7,8 15,8 9,0 27,8 41,17 45,29 88,53 117,64 15,6 27,15 27,20 0,5 5,9 11,9 6,0 25,10 42,23 46,32 69,46 97,58 32,14 39,18 135,76 44,26 87,52 95,56 8,4 33,19 55,32 22,13 58,33 80,44 49,25 72,41 97,64 10,9 25,17 33,17 9,0 28,8 43,19 46,31 85,54 142,84 30,16 57,33 60,37 3,5 37,25 75,45 39,20 88,47 110,61 22,13 56,31 75,39 19,9 37,19 40,23 8,12 61,45 125,78 90,47 108,57 140,80 17,12 50,32 75,46 25,14 61,35 80,46 19,12 50,28 69,37 18,8 55,31 81,50 26,19 53,35 59,35 7,0 24,8 39,18 42,28 64,41 102,60 19,9 41,23 48,30 7,6 19,12 27,12 7,0 15,6 18,13 2,7 38,29 78,50 41,21 92,49 114,63 22,13 52,29 68,35 15,6 27,14 27,18 0,4 15,15 33,24 17,10 46,26 63,36 17,10 63,35 102,55 38,21 73,44 76,52 3,7 15,14 26,14 11,0 28,8 38,18 10,9 41,28 68,42 27,13 60,32 73,42 13,10 30,18 38,18 8,0 21,6 28,13 27,23 40,33 55,40 8,4 33,18 55,31 22,13 76,43 120,66 43,24 85,48 92,54 34,30 43,36 58,36 8,0 15,4 15,9 0,5 17,16 38,25 51,22 109,55 162,91 25,17 74,46 110,64 36,19 79,43 95,52 17,10 44,26 60,35 17,9 32,20 35,24 3,3 19,14 35,22 17,9 46,24 65,33 19,10 37,22 40,25 3,4 34,22 70,40 36,18 69,39 73,46 4,8 14,14 22,14 7,0 20,6 27,13 7,6 42,27 78,46 36,18 72,39 81,47 15,13 16,268 11,3022 -3,2234 -7,3010 -16,3018 -6,7 -40,27 -76,45 -36,19 -66,37 -68,42 -2,4 -12,7 -23,7 -10,0 -19,6 -19,13 -1,6 -31,27 -68,45 -61,30 -113,58 -184,101 -62,38 -147,86 -193,111 -80,43 -130,72 -135,79 -3,3 -32,20 -65,38 -33,17 -80,43 -105,57 -25,13 -60,32 -77,40 -18,8 -33,19 -33,24 0,4 -31,23 -70,42 -39,19 -70,37 -70,42 0,4 -7,8 -16,8 -9,0 -27,9 -41,20 -14,11 -32,20 -40,20 -8,0 -19,5 -26,10 -47,40 -66,52 -133,86 -92,48 -118,63 -172,97 -63,40 -99,61 -294,164 -16,8 -28,18 -28,23 0,4 -12,13 -27,19 -16,6 -68,34 -118,61 -49,28 -102,55 -117,61 -16,6 -28,17 -28,25 0,8 -8,14 -19,14 -10,0 -30,9 -44,20 -14,11 -32,20 -41,20 -9,0 -16,4 -16,8 0,5 -18,17 -40,27 -22,10 -45,24 -51,32 -6,7 -19,13 -27,13 -15,0 -82,41 -110,68 -7,6 -22,12 -32,12 -10,0 -20,4 -22,8 -1,4 -49,34 -106,67 -57,33 -120,70 -140,82 -20,13 -52,30 -71,39 -30,13 -187,105 -231,134 -8,6 -31,18 -50,28 -19,9 -37,19 -40,22 -3,3 -31,18 -62,35 -32,16 -58,32 -58,36 0,4 -17,14 -37,24 -58,25 -117,57 -123,64 -3,4 -34,22 -69,40 -35,18 -69,37 -75,42 -29,24 -88,59 -101,59 -7,0 -20,6 -28,14 -8,8 -29,22 -48,30 -19,9 -47,25 -64,36 -37,24 -70,43 -171,98 -43,23 -97,54 -119,67 -22,14 -49,30 -60,35 -11,6 -40,24 -65,40 -25,16 -56,34 -70,40 -14,5 -32,15 -40,20 -8,6 -25,14 -38,20 -22,10 -83,50 -92,61 -3,4 -16,10 -30,14 -14,4 -32,13 -40,20 -8,7 -49,30 -90,51 -41,21 -81,43 -88,48 -7,6 -18,16 -25,21 -7,6 -46,28 -87,49 -94,49 -142,75 -157,88 -22,18 -125,19 -165,2 z m 185,-123 c 58,-33 115,-62 125,-65 11,-4 23,-13 26,-21 3,-8 12,-15 20,-15 8,0 16,-4 18,-8 2,-5 37,-26 78,-46 41,-21 82,-44 90,-51 8,-7 26,-16 40,-20 14,-4 27,-10 30,-14 11,-13 87,-61 97,-61 6,0 16,-6 22,-14 7,-8 23,-17 37,-20 14,-4 38,-15 53,-25 14,-10 48,-31 75,-47 28,-16 66,-39 85,-51 20,-13 72,-41 116,-64 44,-23 82,-45 85,-50 6,-8 83,-52 155,-89 22,-11 47,-24 55,-29 8,-5 27,-14 42,-21 15,-7 36,-21 47,-31 10,-10 54,-36 97,-59 140,-74 209,-113 214,-120 3,-4 50,-31 105,-60 55,-29 138,-77 185,-105 47,-29 126,-73 175,-99 50,-26 95,-54 101,-62 6,-7 14,-14 18,-14 4,0 54,-27 113,-60 58,-33 109,-60 114,-60 4,0 14,-6 21,-13 20,-19 96,-67 107,-67 5,0 39,-18 75,-40 36,-22 70,-40 75,-40 5,0 14,-6 20,-14 7,-8 25,-18 41,-21 16,-3 31,-12 33,-19 3,-8 47,-35 99,-61 51,-26 104,-56 118,-65 14,-10 35,-21 48,-24 12,-4 22,-11 22,-16 0,-4 17,-17 38,-28 119,-63 170,-91 199,-108 109,-65 224,-131 264,-150 26,-13 53,-29 61,-37 7,-8 52,-34 98,-58 47,-24 87,-47 90,-50 3,-4 29,-19 59,-34 30,-15 61,-34 69,-41 8,-8 28,-21 45,-29 18,-8 50,-25 72,-38 22,-12 69,-38 105,-57 36,-19 67,-38 70,-41 6,-6 150,-89 156,-89 7,0 109,-64 122,-77 7,-7 18,-13 23,-13 6,0 43,-19 82,-42 40,-23 92,-53 117,-66 25,-13 47,-27 50,-31 3,-3 19,-13 35,-21 17,-8 32,-17 35,-20 3,-3 36,-21 73,-40 38,-19 72,-39 76,-45 5,-5 11,-1334 13,-2951 l 5,-2942 -66,-37 c -36,-20 -73,-41 -81,-46 -8,-5 -34,-18 -57,-30 -24,-12 -43,-25 -43,-29 0,-4 -24,-20 -52,-34 -29,-15 -75,-40 -103,-56 -27,-16 -65,-36 -82,-44 -18,-8 -42,-23 -53,-34 -11,-10 -52,-35 -92,-57 -40,-21 -104,-56 -141,-79 -115,-70 -161,-96 -197,-112 -19,-9 -37,-19 -40,-23 -3,-3 -25,-17 -50,-31 -25,-13 -49,-28 -55,-32 -19,-16 -237,-138 -247,-138 -5,0 -20,-11 -33,-24 -13,-14 -35,-28 -47,-31 -13,-4 -30,-13 -38,-20 -8,-7 -35,-23 -60,-35 -25,-13 -56,-31 -69,-41 -13,-11 -32,-19 -42,-19 -10,0 -24,-8 -31,-19 -7,-10 -53,-40 -103,-66 -95,-50 -159,-86 -187,-107 -26,-18 -107,-64 -163,-92 -46,-23 -143,-83 -155,-96 -3,-3 -21,-13 -40,-22 -38,-19 -60,-32 -102,-60 -15,-10 -32,-18 -39,-18 -6,0 -34,-16 -62,-36 -28,-20 -64,-43 -81,-51 -17,-7 -49,-25 -71,-38 -22,-14 -58,-35 -80,-46 -22,-12 -53,-31 -70,-43 -35,-25 -80,-52 -115,-68 -35,-17 -164,-91 -170,-98 -6,-7 -73,-46 -190,-108 -47,-25 -98,-56 -113,-69 -16,-12 -32,-23 -37,-23 -9,0 -94,-49 -142,-82 -15,-10 -33,-18 -41,-18 -8,0 -34,-15 -59,-34 -24,-19 -76,-51 -114,-71 -38,-20 -85,-46 -105,-58 -19,-12 -57,-35 -85,-51 -27,-16 -61,-37 -76,-47 -15,-11 -33,-19 -40,-19 -12,0 -24,-8 -138,-83 -30,-21 -59,-37 -64,-37 -4,0 -20,-8 -34,-19 -15,-10 -63,-37 -107,-61 -44,-24 -92,-53 -107,-66 -16,-12 -37,-26 -49,-29 -12,-4 -58,-29 -103,-56 -44,-27 -85,-49 -89,-49 -5,0 -34,-18 -64,-40 -31,-22 -60,-40 -65,-40 -5,0 -39,-18 -76,-41 -76,-47 -98,-50 -140,-20 -17,11 -33,21 -37,21 -3,0 -23,11 -43,25 -20,14 -44,25 -52,25 -8,0 -27,11 -41,24 -24,22 -97,64 -249,143 -29,15 -61,35 -70,43 -8,8 -46,31 -83,50 -37,19 -75,40 -85,45 -9,6 -49,28 -87,49 -39,21 -77,44 -85,51 -8,7 -55,34 -105,60 -49,26 -104,58 -122,71 -17,13 -34,24 -36,24 -3,0 -49,25 -102,55 -54,30 -100,55 -103,55 -3,0 -29,16 -58,35 -47,31 -187,109 -251,139 -13,6 -23,14 -23,19 0,4 -9,7 -19,7 -10,0 -21,6 -24,14 -5,11 -59,42 -182,105 -16,8 -36,21 -43,28 -7,7 -20,13 -27,13 -7,0 -21,7 -30,16 -9,10 -31,25 -48,34 -137,73 -192,103 -337,189 -57,35 -118,68 -135,75 -17,7 -38,21 -48,30 -9,10 -45,32 -79,50 -101,53 -222,120 -233,128 -24,20 -129,78 -140,78 -8,0 -15,4 -17,9 -1,5 -19,17 -40,27 -20,11 -83,46 -139,79 -109,63 -167,96 -209,117 -14,6 -43,24 -65,39 -48,32 -99,61 -180,103 -33,17 -63,35 -67,40 -7,11 -119,74 -184,105 -23,11 -45,24 -48,30 -4,6 -16,11 -26,11 -10,0 -20,4 -22,9 -4,10 -42,34 -148,91 -124,67 -185,102 -190,110 -3,4 -21,16 -41,26 -133,68 -208,109 -243,133 -23,15 -48,31 -56,34 -8,4 -37,21 -65,37 -27,16 -61,35 -75,41 -14,6 -40,22 -57,35 -18,14 -65,42 -105,63 -40,21 -83,44 -94,51 l -21,13 -9,2685 c -12,3583 -13,3204 12,3217 12,6 28,16 35,22 8,5 50,29 94,53 44,23 89,50 101,61 11,10 25,19 30,19 5,0 54,27 108,60 54,33 103,60 108,60 5,0 35,18 65,40 31,22 60,40 65,40 5,0 36,17 71,38 34,20 75,43 90,51 15,8 27,18 27,23 0,4 5,8 10,8 6,0 40,18 76,40 36,22 72,40 79,40 7,0 18,7 25,15 6,8 22,17 33,21 12,3 38,18 56,32 36,27 57,39 183,106 40,21 86,49 103,61 16,13 46,30 65,39 37,17 108,59 125,73 6,5 36,22 67,38 32,17 58,33 58,36 0,3 18,14 40,24 22,10 40,22 40,27 0,4 8,8 18,8 10,0 22,4 27,9 6,5 37,24 70,42 33,17 69,40 81,50 11,11 25,19 31,19 6,0 21,8 34,19 13,10 66,40 117,66 51,27 96,53 100,59 4,6 23,19 42,28 19,10 62,33 95,52 33,19 75,42 94,51 18,8 55,31 81,50 26,19 51,35 55,35 4,0 44,21 89,48 44,26 95,54 111,62 17,8 35,20 40,27 6,7 42,28 80,48 80,41 99,52 140,81 17,12 53,33 80,48 28,14 57,30 65,36 8,5 57,32 108,60 50,28 92,55 92,61 0,5 6,9 14,9 7,0 55,25 105,55 51,30 95,55 100,55 4,0 26,13 49,29 22,17 64,43 94,59 94,50 172,96 223,130 28,18 73,44 100,58 62,32 124,67 212,120 37,23 100,58 138,79 39,20 72,40 75,44 3,4 12,11 20,14 8,4 33,18 55,30 93,54 113,66 163,96 29,17 57,31 62,31 6,0 18,8 28,18 22,20 52,38 107,65 22,11 42,22 45,26 4,4 78,48 86,51 0,0 48,-27 107,-59 z"
       id="path5"
       inkscape:connector-curvature="0" />
    <path
       d="m 6005,11604 c -16,-8 -39,-20 -50,-27 -11,-7 -55,-33 -98,-57 -43,-25 -86,-49 -95,-55 -9,-5 -44,-26 -77,-45 -33,-19 -67,-39 -76,-45 -9,-5 -40,-23 -70,-39 -30,-16 -65,-36 -79,-46 -14,-10 -50,-31 -80,-47 -30,-17 -124,-71 -208,-122 -85,-50 -155,-91 -157,-91 -2,0 -39,-22 -82,-48 -43,-26 -112,-67 -153,-90 -41,-24 -82,-47 -90,-52 -68,-43 -152,-90 -159,-90 -5,0 -16,-6 -23,-13 -7,-7 -58,-39 -113,-70 -55,-32 -107,-62 -115,-67 -76,-44 -141,-82 -161,-92 -13,-7 -77,-44 -142,-83 -64,-38 -129,-77 -145,-85 -47,-26 -175,-100 -217,-126 -22,-13 -66,-39 -98,-57 -84,-46 -192,-109 -432,-251 -66,-39 -131,-76 -145,-83 -14,-7 -45,-25 -70,-41 -77,-46 -298,-176 -327,-192 -16,-9 -50,-29 -78,-45 -75,-45 -82,-49 -245,-142 -55,-31 -213,-123 -230,-133 -8,-5 -46,-27 -85,-49 -38,-22 -83,-48 -100,-58 -96,-58 -158,-93 -161,-93 -2,0 -34,-19 -71,-43 -38,-23 -79,-48 -93,-55 -14,-7 -34,-18 -45,-25 -11,-7 -47,-28 -80,-47 -33,-19 -69,-41 -80,-47 -11,-7 -34,-19 -51,-27 -17,-8 -35,-21 -41,-28 -11,-14 2,-5179 13,-5485 l 6,-151 57,-31 c 31,-17 79,-44 106,-60 28,-15 68,-38 90,-51 22,-12 52,-31 67,-41 14,-11 29,-19 32,-19 4,0 25,-12 47,-26 36,-22 277,-160 379,-216 19,-11 44,-25 55,-31 17,-10 116,-66 281,-158 70,-39 80,-45 95,-56 8,-7 35,-23 60,-36 24,-13 121,-68 214,-122 94,-54 208,-120 255,-147 47,-27 92,-53 100,-58 60,-36 272,-157 300,-172 19,-10 62,-34 95,-54 33,-19 79,-44 102,-55 23,-11 45,-24 48,-29 3,-5 18,-15 33,-23 15,-7 43,-23 62,-34 19,-11 69,-39 110,-62 41,-23 82,-46 90,-51 124,-74 233,-137 313,-181 148,-82 235,-131 292,-166 11,-7 36,-20 55,-29 19,-9 37,-19 40,-23 3,-4 37,-24 75,-46 78,-43 104,-57 156,-88 20,-12 65,-38 100,-58 35,-19 152,-86 259,-148 385,-224 539,-311 548,-311 5,0 15,-7 22,-15 7,-8 31,-24 54,-35 22,-11 57,-30 76,-41 19,-12 58,-34 85,-49 28,-14 63,-35 78,-45 24,-15 33,-16 66,-6 21,6 44,18 51,26 7,8 16,15 21,15 5,0 37,17 71,38 35,21 70,42 78,46 8,4 24,12 35,19 49,29 250,146 360,210 66,38 132,78 147,88 15,11 29,19 32,19 3,0 44,24 93,53 48,30 150,89 226,133 76,43 155,89 175,101 20,12 71,42 112,65 41,23 83,47 92,53 9,5 40,24 70,41 29,16 114,65 188,109 228,132 323,187 362,207 20,11 42,26 49,34 6,8 15,14 20,14 7,0 95,49 227,127 20,12 62,36 92,52 63,36 104,60 140,82 14,9 70,42 125,74 55,31 154,89 220,128 66,39 134,79 150,88 54,29 180,103 185,109 3,3 30,18 60,34 30,16 62,34 70,40 8,6 26,17 39,24 63,36 99,56 126,73 28,16 73,43 272,157 40,23 78,42 85,42 16,0 74,33 270,149 48,28 89,51 93,51 10,0 69,44 78,58 4,6 42,31 83,55 42,23 83,47 92,52 9,6 44,26 77,45 33,19 67,40 76,45 9,6 35,20 58,33 l 42,23 -7,1447 c -3,796 -9,2063 -13,2816 l -6,1369 -50,27 c -27,16 -77,43 -110,60 -33,18 -82,47 -110,64 -27,17 -63,38 -78,46 -16,8 -38,24 -50,35 -23,22 -73,52 -312,187 -77,43 -147,83 -155,88 -79,48 -153,90 -159,90 -5,0 -18,9 -31,20 -13,11 -31,20 -42,20 -10,0 -18,5 -18,10 0,6 -7,10 -15,10 -8,0 -15,5 -15,11 0,5 -4,8 -9,5 -5,-4 -11,-2 -13,3 -1,5 -10,11 -18,13 -8,2 -17,6 -20,9 -3,4 -30,19 -60,34 -30,15 -80,44 -110,64 -53,34 -106,62 -210,111 -25,12 -85,45 -135,74 -49,29 -189,110 -310,180 -121,70 -227,131 -235,136 -15,9 -609,347 -681,388 -93,52 -206,117 -229,131 -14,8 -38,22 -55,31 -16,9 -48,27 -70,40 -22,12 -67,38 -100,57 -33,19 -82,47 -110,64 -27,16 -90,52 -140,79 -49,28 -97,55 -105,60 -8,5 -60,35 -115,67 -55,32 -109,63 -120,70 -11,7 -31,18 -45,25 -14,7 -81,46 -150,87 -69,40 -147,86 -175,101 -53,29 -208,118 -237,135 -9,5 -56,32 -105,59 -48,27 -99,57 -113,66 -39,27 -62,30 -95,14 z M 3106,6544 c 134,-29 227,-91 279,-185 27,-49 30,-63 30,-144 -1,-72 -5,-98 -22,-131 -48,-91 -134,-139 -331,-186 -70,-16 -145,-34 -166,-40 -22,-5 -52,-23 -69,-39 -24,-25 -28,-35 -23,-61 14,-72 75,-102 206,-102 100,0 199,28 287,80 30,19 62,34 69,34 11,0 14,-24 14,-116 v -115 l -32,-13 c -69,-29 -236,-56 -344,-56 -171,0 -289,38 -381,123 -58,54 -84,107 -91,184 -12,153 58,254 217,314 56,21 95,31 243,64 43,9 92,26 110,39 28,18 34,29 36,65 4,48 -11,71 -63,99 -22,12 -57,17 -135,17 -90,0 -117,-4 -188,-29 -46,-15 -113,-48 -149,-72 -36,-24 -70,-44 -74,-44 -5,0 -9,58 -9,128 v 128 l 83,26 c 172,56 346,67 503,32 z m 1952,0 c 35,-8 92,-27 128,-41 l 64,-27 v -123 c 0,-141 -1,-143 -74,-87 -72,55 -150,86 -226,92 -141,10 -235,-40 -292,-155 -32,-65 -33,-72 -33,-188 0,-109 2,-125 26,-175 93,-196 319,-226 526,-70 29,22 57,40 63,40 6,0 10,-46 10,-129 v -129 l -66,-26 c -102,-41 -179,-56 -294,-56 -181,0 -305,46 -405,151 -198,207 -192,623 11,809 65,58 105,81 189,106 123,35 240,38 373,8 z m 1059,0 c 85,-22 153,-62 218,-128 100,-101 145,-224 145,-401 0,-177 -47,-303 -151,-406 -96,-95 -221,-139 -396,-139 -271,0 -461,140 -518,382 -19,80 -19,245 0,324 42,179 172,320 334,364 116,31 258,33 368,4 z m 1111,0 c 130,-29 236,-104 284,-202 32,-65 32,-197 1,-258 -48,-91 -134,-139 -331,-186 -70,-16 -145,-34 -166,-40 -22,-5 -52,-23 -69,-39 -24,-25 -28,-35 -23,-61 14,-72 75,-102 206,-102 100,0 199,28 287,80 30,19 62,34 69,34 11,0 14,-24 14,-116 v -115 l -32,-13 c -70,-29 -236,-56 -346,-56 -208,0 -357,63 -434,183 -32,50 -33,55 -33,153 0,94 2,104 30,149 17,26 51,63 78,81 72,50 136,71 349,119 43,9 92,26 110,39 28,18 34,29 36,65 4,48 -11,71 -63,99 -22,12 -57,17 -135,17 -90,0 -117,-4 -188,-29 -46,-15 -113,-48 -149,-72 -36,-24 -70,-44 -74,-44 -5,0 -9,58 -9,128 v 128 l 83,26 c 173,56 346,67 505,32 z M 1780,6370 v -170 h 103 c 133,-1 245,-21 304,-56 72,-42 130,-101 160,-163 25,-50 27,-67 28,-161 0,-90 -3,-111 -22,-145 -44,-79 -98,-123 -193,-156 -61,-21 -85,-23 -357,-27 l -293,-4 v 526 526 h 135 135 z m 2398,78 -3,-93 -87,-3 -88,-3 v -334 -335 h 90 90 v -95 -95 h -310 -310 v 95 95 h 85 85 v 335 335 h -85 -85 v 95 95 h 310 311 z m 4042,-328 v -420 h 113 c 61,0 136,-3 165,-6 l 52,-7 v -98 -99 h -465 -465 v 100 100 h 113 c 61,0 136,3 165,6 l 52,7 v 418 419 h 135 135 z m 690,315 34,-105 h 201 200 l 36,103 35,102 137,3 c 75,1 137,-1 137,-6 0,-4 -17,-53 -39,-108 -21,-54 -83,-218 -136,-364 -54,-146 -124,-332 -154,-415 l -56,-150 -156,-3 -155,-2 -12,32 c -6,18 -61,168 -122,333 -148,399 -250,676 -250,681 0,2 60,4 133,4 h 133 z m 1432,-317 3,-423 163,-3 162,-2 v -100 -100 h -465 -465 v 99 c 0,119 -14,111 188,111 h 142 v 420 420 h 135 135 z"
       id="path7"
       inkscape:connector-curvature="0" />
    <path
       d="m 5835,6346 c -85,-39 -124,-97 -150,-221 -31,-147 1,-304 79,-393 81,-92 256,-92 346,-2 63,63 84,133 85,280 0,149 -15,205 -77,275 -75,85 -183,108 -283,61 z"
       id="path9"
       inkscape:connector-curvature="0" />
    <path
       d="m 1780,5846 v -156 h 100 c 164,0 223,39 222,146 0,66 -24,110 -72,139 -28,16 -57,21 -142,24 l -108,3 z"
       id="path11"
       inkscape:connector-curvature="0" />
    <path
       d="m 9020,6126 c 0,-8 27,-92 60,-187 33,-95 60,-175 60,-178 2,-23 38,76 130,352 l 9,27 h -130 c -103,0 -129,-3 -129,-14 z"
       id="path13"
       inkscape:connector-curvature="0" />
  </g>
  <g
     id="layer103"
     transform="matrix(0.19268371,0,0,0.19268371,-166.67141,-3.5810865)"
     style="fill:#ffffff;stroke:none">
    <path
       d="m 5958,11954 c -21,-9 -38,-20 -38,-25 0,-5 -9,-9 -20,-9 -11,0 -20,-4 -20,-9 0,-5 -17,-16 -37,-25 -38,-15 -94,-46 -103,-56 -5,-6 -42,-28 -120,-73 -19,-11 -48,-28 -65,-38 -16,-10 -56,-32 -87,-48 -32,-16 -67,-39 -80,-50 -12,-12 -25,-21 -30,-21 -12,0 -192,-103 -196,-112 -2,-5 -12,-8 -23,-8 -10,0 -19,-5 -19,-10 0,-6 -17,-18 -37,-28 -21,-9 -44,-23 -51,-29 -7,-7 -18,-13 -23,-13 -9,0 -91,-46 -147,-82 -15,-10 -43,-27 -62,-38 -54,-31 -73,-43 -102,-62 -15,-10 -32,-18 -38,-18 -11,0 -91,-49 -100,-62 -3,-4 -21,-14 -40,-23 -19,-9 -53,-27 -75,-40 -22,-14 -47,-28 -55,-32 -8,-3 -27,-15 -42,-25 -14,-10 -32,-18 -38,-18 -7,0 -20,-8 -29,-18 -9,-10 -23,-21 -31,-25 -8,-4 -51,-27 -95,-52 -44,-24 -102,-56 -130,-71 -27,-15 -63,-36 -80,-48 -44,-31 -64,-43 -121,-71 -29,-14 -69,-37 -90,-52 -22,-14 -52,-34 -69,-43 -16,-9 -55,-31 -85,-49 -30,-18 -62,-36 -70,-40 -8,-4 -28,-16 -45,-25 -16,-10 -38,-20 -47,-23 -10,-3 -18,-10 -18,-15 0,-5 -19,-18 -42,-29 -24,-11 -61,-31 -83,-44 -22,-14 -66,-37 -97,-52 -32,-16 -57,-33 -58,-39 0,-6 -17,-18 -37,-27 -21,-9 -69,-35 -108,-57 -38,-21 -83,-46 -100,-55 -30,-16 -88,-55 -112,-75 -7,-5 -18,-10 -25,-10 -7,0 -24,-9 -38,-20 -14,-11 -33,-20 -42,-20 -10,0 -18,-4 -18,-8 0,-4 -20,-18 -45,-30 -25,-12 -45,-25 -45,-30 0,-4 -16,-14 -35,-21 -19,-7 -35,-17 -35,-22 0,-5 -9,-9 -20,-9 -11,0 -20,-4 -20,-8 0,-4 -19,-18 -43,-31 -99,-53 -113,-60 -123,-68 -22,-17 -52,-34 -119,-69 -38,-20 -72,-40 -75,-44 -3,-4 -29,-20 -59,-35 -29,-14 -63,-35 -74,-46 -12,-10 -26,-19 -32,-19 -7,0 -22,-9 -35,-20 -13,-11 -31,-20 -40,-20 -10,0 -23,-6 -29,-13 -6,-8 -29,-22 -51,-32 -22,-10 -40,-22 -40,-27 0,-4 -9,-8 -19,-8 -11,0 -21,-4 -23,-9 -3,-10 -48,-38 -115,-73 -24,-12 -43,-26 -43,-30 0,-4 -8,-8 -17,-8 -16,0 -86,-41 -120,-70 -7,-5 -17,-10 -23,-10 -6,0 -23,-8 -38,-19 -52,-35 -87,-56 -152,-89 -35,-18 -67,-36 -70,-40 -10,-14 -69,-52 -81,-52 -6,0 -23,-8 -37,-18 -15,-10 -34,-22 -42,-25 -8,-4 -28,-15 -45,-25 l -30,-19 v -329 c 0,-181 4,-1538 9,-3015 l 9,-2685 31,-19 c 17,-10 57,-32 88,-48 32,-16 58,-32 58,-37 0,-4 12,-13 27,-20 16,-6 51,-24 78,-40 28,-16 64,-36 80,-45 17,-8 48,-27 70,-40 22,-14 47,-28 55,-32 8,-3 22,-12 30,-19 13,-11 73,-43 199,-108 20,-10 38,-22 41,-26 6,-9 80,-51 181,-104 64,-34 131,-75 156,-96 7,-5 19,-10 27,-10 8,0 21,-6 29,-14 8,-8 29,-22 48,-30 19,-9 43,-21 54,-28 11,-7 43,-26 70,-42 28,-17 52,-33 55,-36 3,-3 32,-19 65,-36 33,-17 76,-40 96,-52 20,-11 47,-26 60,-34 13,-7 32,-19 41,-26 18,-15 46,-30 143,-81 87,-46 128,-69 134,-78 3,-4 24,-17 45,-28 96,-49 111,-58 114,-66 2,-5 11,-9 20,-9 10,0 28,-9 42,-20 14,-11 30,-20 36,-20 5,0 19,-8 30,-18 11,-10 58,-38 104,-62 47,-24 96,-52 109,-62 13,-10 32,-18 42,-18 11,0 19,-4 19,-10 0,-5 6,-10 13,-10 6,0 25,-11 40,-24 16,-14 56,-39 90,-56 78,-40 111,-59 165,-93 61,-40 136,-82 162,-91 8,-3 33,-17 55,-31 22,-14 55,-32 73,-40 17,-8 32,-19 32,-24 0,-5 14,-14 30,-20 17,-5 38,-17 46,-26 8,-8 24,-15 35,-15 10,0 19,-4 19,-9 0,-5 17,-16 37,-25 59,-25 106,-54 115,-71 5,-8 17,-15 28,-15 10,0 20,-3 22,-7 3,-8 117,-70 195,-108 24,-11 43,-26 43,-32 0,-7 7,-13 16,-13 9,0 27,-9 41,-20 14,-11 34,-20 44,-20 9,0 19,-4 21,-8 2,-5 37,-27 78,-51 41,-23 93,-53 115,-67 22,-13 50,-28 62,-34 11,-5 24,-13 27,-18 3,-6 18,-13 32,-16 14,-4 38,-15 53,-25 50,-34 106,-69 151,-94 25,-13 61,-34 80,-45 19,-12 51,-28 69,-37 19,-9 49,-27 67,-40 18,-14 37,-25 43,-25 6,0 11,-4 11,-10 0,-5 7,-10 16,-10 9,0 28,-8 42,-19 15,-10 37,-22 50,-25 12,-4 22,-11 22,-16 0,-5 17,-14 37,-21 20,-6 42,-16 47,-21 48,-39 60,-47 86,-58 17,-7 30,-16 30,-21 0,-5 8,-9 18,-9 9,0 33,-10 52,-22 145,-91 216,-109 286,-70 17,9 52,28 77,41 26,14 47,29 47,33 0,4 8,8 18,8 14,0 77,36 117,67 6,5 21,14 35,21 14,7 43,23 65,36 22,14 68,38 103,56 34,17 62,34 62,38 0,4 18,16 40,26 22,11 40,23 40,28 0,4 7,8 15,8 9,0 27,8 41,17 45,29 88,53 117,64 15,6 27,15 27,20 0,5 5,9 11,9 6,0 25,10 42,23 46,32 69,46 97,58 32,14 39,18 135,76 44,26 87,52 95,56 8,4 33,19 55,32 22,13 58,33 80,44 49,25 72,41 97,64 10,9 25,17 33,17 9,0 28,8 43,19 46,31 85,54 142,84 30,16 57,33 60,37 3,5 37,25 75,45 39,20 88,47 110,61 22,13 56,31 75,39 19,9 37,19 40,23 8,12 61,45 125,78 90,47 108,57 140,80 17,12 50,32 75,46 25,14 61,35 80,46 19,12 50,28 69,37 18,8 55,31 81,50 26,19 53,35 59,35 7,0 24,8 39,18 42,28 64,41 102,60 19,9 41,23 48,30 7,6 19,12 27,12 7,0 15,6 18,13 2,7 38,29 78,50 41,21 92,49 114,63 22,13 52,29 68,35 15,6 27,14 27,18 0,4 15,15 33,24 17,10 46,26 63,36 17,10 63,35 102,55 38,21 73,44 76,52 3,7 15,14 26,14 11,0 28,8 38,18 10,9 41,28 68,42 27,13 60,32 73,42 13,10 30,18 38,18 8,0 21,6 28,13 27,23 40,33 55,40 8,4 33,18 55,31 22,13 76,43 120,66 43,24 85,48 92,54 34,30 43,36 58,36 8,0 15,4 15,9 0,5 17,16 38,25 51,22 109,55 162,91 25,17 74,46 110,64 36,19 79,43 95,52 17,10 44,26 60,35 17,9 32,20 35,24 3,3 19,14 35,22 17,9 46,24 65,33 19,10 37,22 40,25 3,4 34,22 70,40 36,18 69,39 73,46 4,8 14,14 22,14 7,0 20,6 27,13 7,6 42,27 78,46 36,18 72,39 81,47 15,13 16,268 11,3022 -3,2234 -7,3010 -16,3018 -6,7 -40,27 -76,45 -36,19 -66,37 -68,42 -2,4 -12,7 -23,7 -10,0 -19,6 -19,13 -1,6 -31,27 -68,45 -61,30 -113,58 -184,101 -62,38 -147,86 -193,111 -80,43 -130,72 -135,79 -3,3 -32,20 -65,38 -33,17 -80,43 -105,57 -25,13 -60,32 -77,40 -18,8 -33,19 -33,24 0,4 -31,23 -70,42 -39,19 -70,37 -70,42 0,4 -7,8 -16,8 -9,0 -27,9 -41,20 -14,11 -32,20 -40,20 -8,0 -19,5 -26,10 -47,40 -66,52 -133,86 -92,48 -118,63 -172,97 -63,40 -99,61 -294,164 -16,8 -28,18 -28,23 0,4 -12,13 -27,19 -16,6 -68,34 -118,61 -49,28 -102,55 -117,61 -16,6 -28,17 -28,25 0,8 -8,14 -19,14 -10,0 -30,9 -44,20 -14,11 -32,20 -41,20 -9,0 -16,4 -16,8 0,5 -18,17 -40,27 -22,10 -45,24 -51,32 -6,7 -19,13 -27,13 -15,0 -82,41 -110,68 -7,6 -22,12 -32,12 -10,0 -20,4 -22,8 -1,4 -49,34 -106,67 -57,33 -120,70 -140,82 -20,13 -52,30 -71,39 -30,13 -187,105 -231,134 -8,6 -31,18 -50,28 -19,9 -37,19 -40,22 -3,3 -31,18 -62,35 -32,16 -58,32 -58,36 0,4 -17,14 -37,24 -58,25 -117,57 -123,64 -3,4 -34,22 -69,40 -35,18 -69,37 -75,42 -29,24 -88,59 -101,59 -7,0 -20,6 -28,14 -8,8 -29,22 -48,30 -19,9 -47,25 -64,36 -37,24 -70,43 -171,98 -43,23 -97,54 -119,67 -22,14 -49,30 -60,35 -11,6 -40,24 -65,40 -25,16 -56,34 -70,40 -14,5 -32,15 -40,20 -8,6 -25,14 -38,20 -22,10 -83,50 -92,61 -3,4 -16,10 -30,14 -14,4 -32,13 -40,20 -8,7 -49,30 -90,51 -41,21 -81,43 -88,48 -7,6 -18,16 -25,21 -7,6 -46,28 -87,49 -94,49 -142,75 -157,88 -22,18 -125,19 -165,2 z m 118,-80 c 16,-9 47,-27 69,-40 22,-13 56,-31 75,-40 19,-9 55,-31 80,-48 25,-18 72,-45 105,-61 33,-16 62,-32 65,-36 3,-3 30,-19 60,-34 30,-15 57,-31 60,-35 3,-4 23,-17 45,-29 22,-12 47,-25 55,-30 8,-5 26,-14 40,-20 14,-6 43,-22 65,-36 22,-14 51,-31 65,-38 14,-6 27,-14 30,-18 3,-3 35,-23 72,-43 37,-21 70,-42 74,-47 3,-5 12,-9 21,-9 8,0 40,-18 72,-40 31,-22 60,-40 64,-40 4,0 54,-27 111,-59 57,-32 113,-62 125,-66 12,-3 21,-11 21,-16 0,-5 10,-14 23,-20 12,-5 58,-30 102,-54 44,-25 96,-53 115,-63 19,-9 41,-23 48,-29 7,-7 17,-13 22,-13 5,0 15,-6 22,-14 7,-7 40,-26 73,-42 33,-16 88,-46 121,-67 34,-20 66,-37 72,-37 6,0 15,-6 19,-13 4,-8 22,-20 38,-29 105,-53 212,-113 224,-126 8,-8 33,-23 55,-33 23,-11 55,-27 71,-37 17,-10 59,-34 95,-53 36,-18 70,-39 75,-46 6,-7 48,-32 95,-56 157,-82 205,-109 210,-116 6,-10 281,-161 292,-161 4,0 8,-3 8,-7 0,-9 20,-21 143,-87 78,-42 205,-115 293,-170 23,-14 47,-26 53,-26 7,0 27,-11 46,-25 31,-25 165,-101 233,-133 17,-9 32,-19 32,-23 0,-4 13,-10 29,-14 16,-3 31,-12 34,-19 3,-6 33,-27 68,-45 35,-19 82,-44 104,-57 22,-13 51,-29 65,-36 14,-7 39,-21 55,-32 35,-25 116,-70 164,-92 19,-8 40,-22 48,-30 8,-8 21,-14 29,-14 8,0 22,-8 32,-17 9,-10 40,-29 67,-42 28,-14 57,-30 65,-37 8,-7 43,-26 77,-44 35,-17 69,-37 76,-43 13,-12 37,-27 80,-49 12,-6 29,-15 37,-20 8,-5 29,-15 45,-22 17,-8 38,-23 46,-33 15,-16 17,-292 28,-2957 6,-1617 8,-2942 5,-2945 -7,-7 -97,-58 -181,-101 -35,-18 -63,-37 -63,-41 0,-5 -7,-9 -15,-9 -8,0 -15,-4 -15,-10 0,-5 -5,-10 -11,-10 -5,0 -57,-27 -114,-60 -57,-33 -108,-60 -113,-60 -4,0 -17,-8 -28,-18 -27,-23 -51,-38 -99,-62 -22,-11 -57,-30 -77,-43 -20,-12 -82,-48 -137,-81 -56,-32 -104,-62 -107,-67 -3,-5 -12,-9 -19,-9 -8,0 -46,-20 -85,-45 -39,-25 -73,-45 -76,-45 -2,0 -10,-5 -17,-11 -7,-5 -26,-18 -44,-27 -127,-67 -213,-117 -213,-123 0,-4 -17,-15 -37,-24 -21,-10 -75,-40 -121,-66 -45,-27 -86,-49 -91,-49 -4,0 -20,-10 -35,-23 -15,-13 -68,-45 -119,-72 -51,-26 -94,-51 -97,-55 -3,-4 -17,-13 -31,-21 -59,-31 -164,-93 -169,-99 -3,-4 -22,-13 -42,-19 -21,-7 -38,-16 -38,-21 0,-5 -9,-12 -20,-15 -11,-3 -26,-12 -32,-19 -12,-11 -60,-39 -203,-116 -63,-34 -136,-80 -145,-91 -3,-4 -21,-14 -40,-22 -45,-20 -131,-70 -195,-112 -27,-18 -90,-54 -140,-80 -49,-26 -103,-57 -120,-69 -34,-24 -57,-38 -100,-60 -16,-9 -61,-34 -100,-56 -38,-22 -85,-47 -102,-55 -18,-9 -33,-19 -33,-24 0,-6 -9,-12 -20,-16 -18,-6 -44,-20 -148,-82 -20,-12 -51,-29 -68,-36 -17,-8 -53,-31 -81,-51 -28,-20 -57,-36 -66,-36 -9,0 -18,-4 -22,-9 -3,-6 -40,-29 -81,-53 -42,-24 -84,-48 -94,-53 -10,-6 -24,-16 -31,-22 -8,-6 -45,-27 -84,-47 -83,-44 -138,-76 -145,-85 -3,-4 -30,-20 -60,-35 -30,-16 -62,-34 -70,-40 -8,-7 -49,-30 -90,-51 -41,-21 -86,-49 -100,-62 -14,-13 -32,-23 -41,-23 -9,0 -27,-8 -40,-19 -13,-10 -44,-28 -69,-41 -25,-12 -52,-28 -60,-35 -8,-7 -26,-16 -40,-20 -14,-4 -32,-15 -40,-25 -8,-10 -53,-37 -100,-62 -47,-24 -96,-51 -109,-60 -20,-14 -28,-15 -44,-5 -11,7 -36,22 -56,34 -20,12 -62,34 -93,49 -32,16 -58,32 -58,36 0,4 -7,8 -15,8 -8,0 -15,5 -15,10 0,6 -6,10 -14,10 -8,0 -21,6 -28,13 -7,6 -47,30 -88,51 -41,21 -87,47 -102,57 -14,11 -31,19 -37,19 -7,0 -17,5 -24,10 -45,39 -61,50 -68,50 -4,0 -56,27 -115,60 -59,33 -111,60 -115,60 -3,0 -12,7 -19,16 -8,8 -27,22 -44,30 -17,8 -51,26 -76,40 -25,14 -67,38 -95,52 -27,15 -53,31 -57,36 -3,5 -25,19 -47,30 -127,65 -227,121 -236,131 -5,7 -44,30 -85,52 -148,79 -215,117 -220,123 -7,9 -281,160 -291,160 -4,0 -9,4 -11,8 -3,8 -124,82 -133,82 -6,0 -150,83 -155,89 -3,4 -34,22 -70,40 -36,19 -76,43 -89,53 -13,10 -30,18 -38,18 -9,0 -33,14 -54,31 -21,17 -69,46 -106,65 -38,19 -86,46 -108,59 -46,28 -82,45 -96,45 -5,0 -9,4 -9,10 0,5 -28,24 -62,43 -35,19 -85,47 -113,62 -86,48 -100,55 -109,55 -5,0 -14,7 -20,15 -10,14 -68,48 -161,95 -22,11 -57,30 -77,43 -125,75 -208,123 -252,145 -28,14 -67,37 -86,52 -19,15 -46,31 -60,35 -14,4 -32,13 -40,20 -8,7 -53,34 -100,60 -159,90 -175,99 -188,112 -7,7 -21,13 -29,13 -9,0 -24,6 -32,14 -9,7 -45,29 -81,47 -36,18 -67,37 -68,41 -2,5 -18,15 -35,23 -85,40 -314,172 -323,186 -3,5 -13,9 -23,9 -10,0 -24,7 -31,15 -7,8 -37,27 -67,41 -30,15 -61,33 -68,40 -12,12 -99,60 -185,103 l -28,14 -6,161 c -3,88 -7,1418 -9,2955 l -2,2795 40,22 c 22,12 71,38 108,58 73,39 130,76 135,89 2,4 12,7 21,7 10,0 29,9 43,19 13,11 64,40 112,65 48,25 93,51 100,59 6,8 49,35 96,59 47,24 110,60 140,79 30,20 91,55 135,79 133,72 170,93 180,104 6,6 35,24 65,40 30,16 62,35 70,42 8,7 27,16 43,19 15,4 27,10 27,15 0,4 18,15 40,25 22,10 40,22 40,27 0,4 6,8 14,8 8,0 21,6 28,14 8,7 24,16 36,20 12,4 28,13 34,20 13,12 37,26 128,72 25,13 58,35 74,49 16,14 33,25 37,25 10,0 219,118 239,135 8,7 51,31 95,55 113,60 167,92 189,112 11,10 24,18 29,18 5,0 35,15 66,34 31,18 85,49 121,67 36,18 70,39 75,46 6,7 37,27 70,44 33,17 74,38 90,47 17,9 36,22 43,29 7,7 19,13 26,13 7,0 33,14 57,32 24,17 75,48 114,69 134,73 145,79 145,89 0,6 9,10 19,10 11,0 23,5 27,11 3,6 21,18 38,26 17,8 54,28 81,43 28,16 74,41 103,56 28,16 52,32 52,36 0,4 19,16 43,27 23,12 56,29 73,40 17,10 63,36 102,56 40,20 72,41 72,45 0,5 42,30 93,56 50,26 103,55 116,65 13,11 28,19 34,19 6,0 20,8 31,19 12,10 57,38 101,61 111,59 169,93 175,101 3,3 33,21 68,39 34,17 62,36 62,40 0,4 12,11 28,15 25,6 171,91 182,106 3,3 16,10 30,14 13,4 37,16 52,26 16,11 41,28 58,39 16,11 33,20 39,20 5,0 32,16 60,35 29,19 75,47 104,62 29,15 72,40 96,55 52,33 58,33 97,12 z"
       id="path16"
       inkscape:connector-curvature="0" />
    <path
       d="m 5959,11571 c -176,-105 -589,-341 -597,-341 -6,0 -12,-4 -14,-9 -1,-5 -92,-60 -201,-122 -108,-63 -230,-133 -270,-156 -39,-24 -82,-47 -95,-53 -12,-5 -28,-14 -35,-20 -6,-6 -26,-19 -43,-28 -35,-19 -222,-129 -262,-153 -15,-9 -99,-59 -187,-110 -162,-94 -301,-175 -333,-194 -9,-6 -35,-21 -57,-33 -22,-12 -58,-33 -80,-46 -22,-14 -67,-40 -100,-59 -73,-42 -487,-281 -605,-350 -47,-27 -98,-57 -115,-67 -39,-22 -141,-82 -163,-95 -9,-6 -35,-21 -57,-33 -22,-12 -58,-33 -80,-47 -52,-32 -128,-76 -275,-160 -25,-14 -63,-37 -85,-50 -22,-14 -58,-35 -80,-47 -22,-12 -49,-28 -60,-35 -11,-6 -36,-20 -55,-31 -33,-18 -127,-72 -160,-91 -29,-18 -504,-296 -565,-331 -40,-23 -141,-81 -173,-100 l -26,-16 2,-2684 c 1,-1477 5,-2742 9,-2812 l 6,-128 46,-27 c 25,-15 64,-37 86,-49 88,-47 141,-78 166,-95 15,-10 37,-23 50,-29 13,-5 33,-16 44,-22 61,-40 126,-78 130,-78 3,0 34,-18 70,-40 36,-22 68,-40 72,-40 3,0 29,-14 57,-32 28,-17 76,-45 106,-61 30,-16 66,-37 80,-46 14,-8 34,-21 45,-27 11,-6 36,-20 55,-31 19,-11 70,-40 113,-64 43,-24 94,-54 115,-66 20,-12 62,-36 92,-53 30,-16 75,-42 100,-56 25,-15 59,-35 75,-44 74,-42 211,-122 225,-130 8,-6 31,-18 50,-28 19,-10 80,-45 135,-77 55,-32 114,-66 130,-75 17,-9 158,-90 315,-180 157,-90 306,-175 332,-189 26,-14 114,-65 195,-112 81,-47 155,-89 163,-93 8,-3 44,-24 80,-46 36,-22 118,-70 183,-107 65,-37 126,-73 135,-78 9,-6 57,-33 106,-60 48,-28 104,-60 125,-71 20,-12 52,-30 71,-41 19,-10 157,-89 305,-174 149,-86 293,-168 320,-184 68,-38 168,-95 213,-122 20,-12 53,-31 72,-41 19,-10 72,-39 117,-65 45,-26 90,-47 99,-47 9,0 130,66 268,146 138,81 296,172 351,204 55,31 125,72 155,90 30,18 73,43 95,55 40,22 126,72 190,110 19,11 96,56 172,100 76,43 178,103 226,132 48,29 92,53 97,53 6,0 10,4 10,8 0,4 15,15 33,23 17,9 59,31 92,51 33,19 132,77 220,128 88,51 172,101 187,111 15,11 30,19 34,19 6,0 73,39 149,87 11,7 36,21 55,31 19,10 60,34 90,52 55,33 161,95 345,200 140,80 449,260 493,288 20,12 44,25 52,29 8,4 17,9 20,12 3,3 22,15 42,26 80,43 313,180 318,186 3,4 21,14 40,23 19,8 42,20 50,26 57,39 186,110 201,110 15,0 85,35 139,70 25,16 83,50 215,124 39,22 81,52 94,68 13,15 28,28 33,28 6,0 50,25 100,55 49,30 92,55 95,55 2,0 47,26 99,57 l 94,57 -1,1646 c -1,905 -5,2169 -8,2809 l -6,1163 -90,54 c -49,29 -101,58 -114,64 -42,19 -196,113 -206,127 -10,14 -37,31 -85,55 -14,6 -32,18 -40,25 -15,12 -111,66 -175,99 -16,8 -46,25 -66,37 -49,29 -187,108 -276,158 -18,10 -33,16 -33,13 0,-3 -15,6 -32,20 -18,13 -35,24 -38,23 -5,-1 -61,33 -70,43 -3,3 -10,6 -16,7 -14,3 -137,74 -144,83 -6,8 -159,88 -205,108 -16,7 -39,18 -50,25 -23,14 -171,99 -230,132 -22,12 -116,66 -210,120 -93,54 -188,108 -210,120 -115,63 -191,107 -230,133 -11,7 -31,18 -45,25 -24,11 -208,117 -240,138 -8,5 -24,13 -35,18 -11,5 -56,30 -100,56 -80,48 -111,66 -182,106 -21,12 -69,40 -108,63 -38,22 -81,47 -95,54 -14,7 -41,23 -62,35 -60,37 -242,141 -348,200 -14,8 -57,33 -97,55 -39,23 -87,50 -105,60 -18,11 -89,52 -158,91 -69,39 -134,77 -145,83 -11,6 -156,89 -322,184 -167,96 -309,174 -316,174 -7,0 -42,-17 -78,-39 z M 7615,9628 c 3,-18 15,-73 26,-123 11,-49 29,-129 40,-177 10,-49 28,-127 38,-175 11,-49 29,-131 41,-183 11,-52 29,-133 40,-180 10,-47 28,-130 40,-185 12,-55 30,-136 40,-180 10,-44 28,-125 40,-180 35,-164 24,-149 110,-157 314,-29 495,-66 720,-146 74,-27 205,-85 260,-116 25,-14 60,-33 78,-41 18,-9 55,-31 81,-50 27,-19 52,-35 56,-35 4,0 28,-17 54,-38 25,-21 65,-51 89,-66 23,-16 107,-93 185,-170 142,-141 244,-266 334,-407 27,-42 54,-84 60,-95 30,-45 128,-240 163,-322 l 22,-51 107,-3 106,-3 3,-422 2,-423 h 165 165 v -105 -105 h -144 c -80,0 -147,-4 -151,-9 -3,-5 0,-99 6,-208 9,-150 9,-252 0,-423 -11,-194 -18,-258 -47,-397 l -4,-23 h -329 -328 l -11,43 c -32,122 -34,150 -17,212 64,226 106,469 121,698 7,95 6,98 -15,104 -20,5 -21,11 -21,109 0,86 3,104 15,104 10,0 15,10 15,28 0,53 -41,348 -55,399 -8,28 -15,59 -15,69 0,17 -32,131 -49,178 -7,18 -18,-10 -207,-524 -36,-96 -81,-217 -100,-268 l -36,-92 -161,2 -161,3 -98,265 c -54,146 -109,294 -122,330 -71,192 -166,452 -166,456 0,2 62,4 138,4 h 139 l 38,-110 37,-110 h 193 193 l 15,43 c 9,23 26,72 39,110 l 23,67 h 87 87 l -9,31 c -18,61 -125,266 -196,375 -85,129 -114,165 -244,294 -134,134 -182,173 -314,254 -193,119 -495,217 -718,233 -88,7 -86,10 -64,-76 13,-52 27,-114 77,-346 11,-49 27,-119 36,-155 8,-36 19,-85 23,-110 4,-25 14,-74 23,-110 8,-36 23,-96 32,-135 10,-38 21,-92 25,-120 5,-27 15,-77 23,-110 8,-33 25,-105 37,-160 12,-55 30,-136 40,-180 10,-44 28,-125 40,-180 12,-55 26,-118 31,-140 5,-22 16,-75 24,-118 8,-43 17,-83 21,-88 3,-5 23,-9 45,-9 h 39 v -105 c 0,-88 -2,-105 -16,-105 -18,0 -14,-47 16,-170 18,-74 40,-175 80,-360 11,-52 29,-133 40,-180 10,-47 28,-128 40,-180 11,-52 29,-133 40,-180 10,-47 28,-130 40,-185 23,-108 48,-222 80,-365 11,-49 29,-130 40,-180 11,-49 29,-129 39,-177 56,-251 110,-499 146,-668 9,-44 19,-83 21,-87 3,-5 -130,-8 -295,-8 h -300 l -11,38 c -5,22 -14,61 -19,88 -5,27 -16,78 -25,114 -8,36 -24,110 -36,165 -12,55 -30,138 -40,185 -19,82 -34,152 -80,365 -21,97 -39,178 -81,365 -11,49 -28,129 -39,177 -10,49 -27,120 -36,158 -9,39 -20,93 -24,120 -4,28 -15,77 -23,110 -8,33 -25,105 -37,160 -11,55 -25,118 -30,140 -6,22 -15,63 -21,90 -13,62 -40,189 -68,315 -11,52 -23,107 -26,123 l -5,27 h -155 -155 v 105 105 h 131 c 128,0 130,0 124,21 -4,12 -11,44 -15,73 -4,28 -15,83 -24,121 -16,66 -30,129 -76,335 -10,47 -28,132 -40,190 -12,58 -28,128 -35,155 -8,28 -17,68 -20,90 -4,22 -15,76 -25,120 -27,115 -55,245 -80,360 -27,127 -55,251 -80,363 -11,48 -25,115 -31,150 -6,34 -15,65 -20,68 -15,9 -165,-15 -261,-41 -296,-82 -486,-259 -549,-512 -42,-166 -45,-305 -14,-523 8,-52 17,-117 20,-143 5,-35 10,-46 18,-39 7,5 42,19 80,32 206,67 453,66 610,-4 75,-33 159,-113 187,-179 32,-72 31,-173 0,-245 -48,-110 -146,-162 -429,-223 -122,-27 -161,-52 -161,-103 0,-132 310,-142 496,-16 73,49 74,48 74,-94 v -124 l -62,-21 c -159,-52 -373,-63 -512,-26 -32,9 -60,15 -61,13 -2,-2 5,-39 15,-83 70,-301 52,-616 -46,-789 -27,-48 -128,-152 -169,-174 -107,-58 -136,-64 -285,-69 -142,-5 -273,8 -286,28 -3,5 -16,9 -30,9 -26,0 -173,70 -240,113 -118,78 -173,122 -310,243 l -92,81 102,102 c 56,55 105,101 109,101 4,0 29,-21 55,-47 58,-57 172,-141 232,-170 54,-25 131,-36 200,-27 40,5 57,14 93,49 37,37 45,52 55,108 21,111 13,222 -30,427 -27,131 -23,123 -56,106 -40,-21 -172,-46 -241,-46 -284,0 -491,161 -537,419 -61,344 99,620 393,677 41,8 97,14 125,14 h 50 l -6,43 c -3,23 -9,119 -12,213 -12,299 34,482 172,696 129,201 395,375 709,464 92,26 289,65 375,75 144,16 143,15 136,57 -9,50 -43,209 -66,307 -10,44 -28,125 -40,180 -11,55 -30,139 -41,188 -31,141 -56,255 -79,362 -24,111 -52,239 -80,360 -10,44 -21,95 -24,113 l -5,32 h 298 299 z M 5724,8643 c 3,-38 11,-174 16,-303 5,-129 14,-280 20,-335 6,-55 15,-206 20,-335 5,-129 14,-278 20,-330 5,-52 10,-110 10,-128 v -32 l -187,2 -188,3 -7,50 c -12,75 -48,233 -69,298 -11,31 -19,64 -19,72 0,17 -24,74 -83,194 -47,98 -137,201 -207,236 -25,12 -76,33 -115,46 l -70,23 -1142,4 c -629,2 -1143,0 -1143,-4 0,-4 24,-39 53,-78 29,-39 79,-107 112,-151 32,-44 70,-96 85,-115 14,-19 46,-64 69,-100 24,-36 49,-69 55,-75 7,-5 36,-44 65,-85 28,-41 72,-102 97,-135 24,-33 65,-91 91,-129 27,-38 56,-77 65,-87 9,-10 40,-51 68,-91 28,-40 73,-102 100,-138 27,-36 72,-99 101,-140 29,-41 57,-80 63,-86 6,-6 31,-41 56,-77 l 45,-67 h 237 238 v -100 -100 h -85 -85 v -108 c 0,-107 0,-109 33,-153 47,-62 107,-145 152,-209 22,-30 42,-57 45,-60 3,-3 16,-19 28,-37 20,-28 22,-44 22,-147 0,-110 -1,-117 -28,-158 -16,-24 -70,-106 -120,-183 -51,-77 -96,-147 -102,-155 -5,-8 -51,-78 -102,-155 -107,-164 -352,-535 -517,-786 -64,-96 -120,-182 -126,-191 -5,-8 -23,-35 -40,-59 -37,-55 -43,-64 -80,-124 -16,-26 -40,-60 -52,-75 -13,-15 -23,-30 -23,-33 0,-3 -142,-220 -220,-337 -50,-74 -110,-169 -110,-174 0,-3 420,-6 933,-6 990,0 1005,1 1123,48 28,11 72,35 97,52 63,43 161,153 201,225 18,33 37,69 43,80 16,28 53,114 53,121 0,3 7,20 14,37 31,67 98,276 137,427 20,80 7,75 195,75 h 169 l 3,-698 2,-697 H 3800 1860 v 96 c 0,93 1,96 38,152 20,32 42,65 47,73 6,9 23,36 39,60 30,47 49,76 118,184 25,39 71,111 103,160 32,50 83,128 113,175 30,47 62,96 71,109 23,34 95,148 130,207 17,29 38,57 46,64 8,7 15,17 15,22 0,5 19,38 42,71 39,58 100,151 123,188 6,9 17,27 26,40 9,13 41,62 70,109 67,106 69,110 93,146 11,16 53,81 94,144 41,63 89,138 107,165 18,28 55,86 83,130 28,44 55,85 59,90 5,6 19,28 33,50 13,22 60,96 105,165 165,252 195,299 207,324 6,14 14,26 18,26 4,0 12,12 18,26 13,27 2,48 -93,174 -23,30 -62,83 -87,117 -47,64 -58,68 -58,24 0,-40 -44,-124 -80,-154 -69,-58 -162,-93 -369,-138 -122,-27 -161,-52 -161,-103 0,-132 310,-142 496,-16 73,49 74,48 74,-94 v -124 l -62,-21 c -155,-51 -374,-63 -503,-28 -119,33 -222,108 -265,194 -19,38 -24,64 -25,123 0,99 22,155 85,214 59,56 125,86 250,115 210,49 225,54 254,83 24,25 28,34 22,66 -10,65 -69,92 -203,92 -103,0 -217,-34 -319,-96 -40,-24 -78,-44 -84,-44 -7,0 -10,41 -8,132 l 3,131 70,24 c 97,33 221,53 325,53 92,0 224,-20 261,-41 l 23,-12 -23,29 c -12,16 -44,61 -71,100 -27,39 -55,78 -63,85 -7,8 -37,48 -66,89 -29,41 -74,104 -101,140 -27,36 -70,97 -96,135 -26,39 -53,75 -59,80 -6,6 -35,44 -64,85 -29,41 -74,104 -101,140 -27,36 -72,99 -101,140 -29,41 -55,77 -59,80 -3,3 -33,43 -65,89 -33,45 -76,105 -95,131 -19,26 -62,86 -95,131 -32,46 -62,86 -65,89 -4,3 -30,39 -59,80 -29,41 -72,100 -94,131 -23,31 -69,94 -102,140 -32,46 -65,90 -72,97 -9,9 -13,45 -13,108 v 94 H 3729 5717 Z M 5080,6546 c 36,-10 90,-29 120,-44 l 55,-27 3,-123 c 2,-97 0,-123 -11,-128 -8,-3 -47,18 -87,45 -92,64 -155,86 -245,85 -158,-1 -262,-96 -284,-261 -19,-137 13,-267 85,-338 111,-112 295,-104 457,20 25,19 55,35 66,35 20,0 21,-5 21,-129 v -128 l -61,-28 c -77,-34 -224,-65 -314,-65 -336,1 -550,219 -548,560 1,286 142,478 393,535 83,19 261,14 350,-9 z m -3292,-172 2,-172 153,-4 c 146,-4 155,-5 220,-35 90,-43 166,-119 197,-198 33,-85 33,-209 1,-283 -30,-66 -103,-133 -179,-164 -54,-22 -71,-23 -364,-26 l -308,-3 v 531 531 l 138,-3 137,-3 z"
       id="path18"
       inkscape:connector-curvature="0" />
    <path
       d="m 5887,6359 c -89,-21 -152,-83 -183,-177 -29,-86 -26,-266 5,-345 45,-113 119,-167 231,-167 97,0 200,63 200,122 0,11 -27,129 -60,263 -33,134 -60,255 -60,269 0,13 -3,27 -7,29 -19,11 -91,15 -126,6 z"
       id="path20"
       inkscape:connector-curvature="0" />
    <path
       d="m 6886,6344 c -84,-27 -202,-93 -199,-111 19,-93 33,-153 42,-176 l 11,-28 28,19 c 45,32 113,58 212,81 210,49 225,54 254,83 24,25 28,34 22,66 -10,66 -69,92 -206,91 -63,0 -106,-7 -164,-25 z"
       id="path22"
       inkscape:connector-curvature="0" />
    <path
       d="m 9083,5950 c 33,-98 62,-178 64,-176 2,1 27,74 57,162 30,87 58,167 61,177 7,16 -3,17 -118,17 h -126 z"
       id="path24"
       inkscape:connector-curvature="0" />
    <path
       d="m 1790,5846 v -156 h 83 c 159,1 222,44 222,150 0,107 -55,148 -210,157 l -95,6 z"
       id="path26"
       inkscape:connector-curvature="0" />
  </g>
</svg>
